<?xml version="1.0" encoding="utf-8"?>
<!-- Generator: Adobe Illustrator 19.0.0, SVG Export Plug-In . SVG Version: 6.00 Build 0)  -->
<svg version="1.1" id="Layer_1" xmlns="http://www.w3.org/2000/svg" xmlns:xlink="http://www.w3.org/1999/xlink" x="0px" y="0px"
	 viewBox="0 0 620.2 155.9" style="enable-background:new 0 0 620.2 155.9;" xml:space="preserve">
<style type="text/css">
	.st0{fill:#0094D4;}
	.st1{fill:#FFC10E;}
	.st2{fill:#231F20;}
	.st3{fill:#FFFFFF;}
	.st4{fill:#EE4023;}
	.st5{fill:#FBBB80;}
	.st6{fill:#2DA34A;}
</style>
<g id="XMLID_2_">
	<g id="XMLID_185_">
		<path id="XMLID_241_" class="st0" d="M123.7,51.5h4.1l6.7,10.4l6.7-10.4h4.1v22h-3.9V57.8l-7,10.4h-0.1l-6.9-10.3v15.7h-3.8V51.5z
			"/>
		<path id="XMLID_238_" class="st0" d="M150,50.8h4.1v3.6H150V50.8z M150.1,56.9h3.8v16.6h-3.8V56.9z"/>
		<path id="XMLID_236_" class="st0" d="M158.3,56.9h3.8v2.6c1.1-1.6,2.6-2.9,5.2-2.9c3.7,0,5.9,2.5,5.9,6.4v10.6h-3.8v-9.4
			c0-2.6-1.3-4.1-3.6-4.1c-2.2,0-3.7,1.5-3.7,4.1v9.4h-3.8V56.9z"/>
		<path id="XMLID_233_" class="st0" d="M177.2,50.8h4.1v3.6h-4.1V50.8z M177.4,56.9h3.8v16.6h-3.8V56.9z"/>
		<path id="XMLID_231_" class="st0" d="M184.2,71.4l1.7-2.6c1.8,1.4,3.7,2,5.4,2c1.6,0,2.6-0.7,2.6-1.8V69c0-1.3-1.8-1.7-3.7-2.3
			c-2.5-0.7-5.2-1.7-5.2-4.9v-0.1c0-3.1,2.6-5.1,5.9-5.1c2.1,0,4.3,0.7,6.1,1.9l-1.5,2.7c-1.6-1-3.3-1.6-4.7-1.6
			c-1.5,0-2.3,0.7-2.3,1.7v0.1c0,1.2,1.8,1.7,3.7,2.3c2.4,0.8,5.2,1.9,5.2,4.8v0.1c0,3.5-2.7,5.2-6.2,5.2
			C188.9,73.9,186.2,73,184.2,71.4z"/>
		<path id="XMLID_229_" class="st0" d="M201.4,69v-8.7h-2.1v-3.3h2.1v-4.6h3.8v4.6h4.5v3.3h-4.5v8.1c0,1.5,0.8,2.1,2,2.1
			c0.8,0,1.6-0.2,2.4-0.6V73c-0.9,0.5-2,0.8-3.4,0.8C203.4,73.8,201.4,72.6,201.4,69z"/>
		<path id="XMLID_226_" class="st0" d="M212,65.3L212,65.3c0-4.8,3.4-8.7,8.1-8.7c5.3,0,8,4.2,8,8.9c0,0.3,0,0.7-0.1,1.1h-12.2
			c0.4,2.7,2.3,4.2,4.8,4.2c1.9,0,3.2-0.7,4.5-2l2.2,2c-1.6,1.9-3.7,3.1-6.8,3.1C215.7,73.9,212,70.4,212,65.3z M224.3,64.1
			c-0.3-2.5-1.7-4.4-4.2-4.4c-2.3,0-4,1.8-4.3,4.4H224.3z"/>
		<path id="XMLID_224_" class="st0" d="M231.3,56.9h3.8v3.7c1-2.5,3-4.2,5.9-4.1v4h-0.2c-3.3,0-5.7,2.2-5.7,6.6v6.3h-3.8V56.9z"/>
		<path id="XMLID_221_" class="st0" d="M243.7,50.8h4.1v3.6h-4.1V50.8z M243.9,56.9h3.8v16.6h-3.8V56.9z"/>
		<path id="XMLID_218_" class="st0" d="M251.1,65.3L251.1,65.3c0-4.8,3.8-8.7,8.9-8.7c5.1,0,8.8,3.9,8.8,8.6v0.1
			c0,4.7-3.8,8.7-8.9,8.7C254.8,73.9,251.1,70.1,251.1,65.3z M265,65.3L265,65.3c0-3-2.1-5.4-5.1-5.4c-3.1,0-5,2.4-5,5.3v0.1
			c0,2.9,2.1,5.3,5.1,5.3C263,70.6,265,68.2,265,65.3z"/>
		<path id="XMLID_215_" class="st0" d="M280,65.3L280,65.3c0-5.6,3.7-8.7,7.7-8.7c2.7,0,4.5,1.4,5.7,2.9v-8.9h3.8v23h-3.8v-2.8
			c-1.2,1.7-3,3.1-5.7,3.1C283.8,73.9,280,70.8,280,65.3z M293.4,65.3L293.4,65.3c0-3.3-2.3-5.4-4.8-5.4c-2.6,0-4.8,2-4.8,5.3v0.1
			c0,3.2,2.2,5.3,4.8,5.3C291.2,70.6,293.4,68.5,293.4,65.3z"/>
		<path id="XMLID_212_" class="st0" d="M300.4,65.3L300.4,65.3c0-4.8,3.4-8.7,8.1-8.7c5.3,0,8,4.2,8,8.9c0,0.3,0,0.7-0.1,1.1h-12.2
			c0.4,2.7,2.3,4.2,4.8,4.2c1.9,0,3.2-0.7,4.5-2l2.2,2c-1.6,1.9-3.7,3.1-6.8,3.1C304.1,73.9,300.4,70.4,300.4,65.3z M312.7,64.1
			c-0.3-2.5-1.7-4.4-4.2-4.4c-2.3,0-4,1.8-4.3,4.4H312.7z"/>
		<path id="XMLID_209_" class="st0" d="M328.9,51.5h8.7c5.1,0,8.4,2.9,8.4,7.4V59c0,4.9-4,7.5-8.8,7.5h-4.4v7.1h-3.9V51.5z
			 M337.3,63c2.9,0,4.8-1.6,4.8-3.9V59c0-2.6-1.9-3.9-4.8-3.9h-4.5V63H337.3z"/>
		<path id="XMLID_207_" class="st0" d="M348.9,56.9h3.8v3.7c1-2.5,3-4.2,5.9-4.1v4h-0.2c-3.3,0-5.7,2.2-5.7,6.6v6.3h-3.8V56.9z"/>
		<path id="XMLID_204_" class="st0" d="M360.3,65.3L360.3,65.3c0-4.8,3.8-8.7,8.9-8.7c5.1,0,8.8,3.9,8.8,8.6v0.1
			c0,4.7-3.8,8.7-8.9,8.7C364.1,73.9,360.3,70.1,360.3,65.3z M374.2,65.3L374.2,65.3c0-3-2.1-5.4-5.1-5.4c-3.1,0-5,2.4-5,5.3v0.1
			c0,2.9,2.1,5.3,5.1,5.3C372.3,70.6,374.2,68.2,374.2,65.3z"/>
		<path id="XMLID_201_" class="st0" d="M380.4,65.3L380.4,65.3c0-5.6,3.7-8.7,7.7-8.7c2.7,0,4.5,1.4,5.7,2.9v-8.9h3.8v23h-3.8v-2.8
			c-1.2,1.7-3,3.1-5.7,3.1C384.2,73.9,380.4,70.8,380.4,65.3z M393.9,65.3L393.9,65.3c0-3.3-2.3-5.4-4.8-5.4c-2.6,0-4.8,2-4.8,5.3
			v0.1c0,3.2,2.2,5.3,4.8,5.3C391.6,70.6,393.9,68.5,393.9,65.3z"/>
		<path id="XMLID_199_" class="st0" d="M401.5,67.5V56.9h3.8v9.4c0,2.6,1.3,4.1,3.6,4.1c2.2,0,3.7-1.5,3.7-4.1v-9.4h3.8v16.6h-3.8
			V71c-1.1,1.6-2.6,2.9-5.2,2.9C403.7,73.9,401.5,71.4,401.5,67.5z"/>
		<path id="XMLID_197_" class="st0" d="M419.7,65.3L419.7,65.3c0-4.8,3.6-8.7,8.6-8.7c3.1,0,5.1,1.2,6.6,2.9l-2.4,2.5
			c-1.2-1.2-2.4-2.1-4.3-2.1c-2.8,0-4.8,2.4-4.8,5.3v0.1c0,3,2,5.3,5,5.3c1.8,0,3.1-0.8,4.3-2.1l2.3,2.3c-1.6,1.8-3.6,3.1-6.8,3.1
			C423.3,73.9,419.7,70.1,419.7,65.3z"/>
		<path id="XMLID_195_" class="st0" d="M437,65.3L437,65.3c0-4.8,3.6-8.7,8.6-8.7c3.1,0,5.1,1.2,6.6,2.9l-2.4,2.5
			c-1.2-1.2-2.4-2.1-4.3-2.1c-2.8,0-4.8,2.4-4.8,5.3v0.1c0,3,2,5.3,5,5.3c1.8,0,3.1-0.8,4.3-2.1l2.3,2.3c-1.6,1.8-3.6,3.1-6.8,3.1
			C440.7,73.9,437,70.1,437,65.3z"/>
		<path id="XMLID_192_" class="st0" d="M455.3,50.8h4.1v3.6h-4.1V50.8z M455.5,56.9h3.8v16.6h-3.8V56.9z"/>
		<path id="XMLID_188_" class="st0" d="M462.7,65.3L462.7,65.3c0-4.8,3.8-8.7,8.9-8.7c5.1,0,8.8,3.9,8.8,8.6v0.1
			c0,4.7-3.8,8.7-8.9,8.7C466.5,73.9,462.7,70.1,462.7,65.3z M476.6,65.3L476.6,65.3c0-3-2.1-5.4-5.1-5.4c-3.1,0-5,2.4-5,5.3v0.1
			c0,2.9,2.1,5.3,5.1,5.3C474.7,70.6,476.6,68.2,476.6,65.3z M473.4,49.7l3.5,1.5l-3.8,3.6h-3L473.4,49.7z"/>
		<path id="XMLID_186_" class="st0" d="M483.7,56.9h3.8v2.6c1.1-1.6,2.6-2.9,5.2-2.9c3.7,0,5.9,2.5,5.9,6.4v10.6h-3.8v-9.4
			c0-2.6-1.3-4.1-3.6-4.1c-2.2,0-3.7,1.5-3.7,4.1v9.4h-3.8V56.9z"/>
	</g>
	<g id="XMLID_128_">
		<path id="XMLID_182_" class="st0" d="M123.3,85h11.1c6.5,0,10.7,3.7,10.7,9.4v0.1c0,6.3-5,9.6-11.2,9.6h-5.6v9h-4.9V85z
			 M133.9,99.6c3.7,0,6-2.1,6-5v-0.1c0-3.3-2.4-5-6-5h-5.7v10.1H133.9z"/>
		<path id="XMLID_180_" class="st0" d="M149.1,91.9h4.8v4.8c1.3-3.2,3.8-5.3,7.5-5.2v5.1h-0.3c-4.2,0-7.2,2.8-7.2,8.4v8h-4.8V91.9z"
			/>
		<path id="XMLID_177_" class="st0" d="M164.1,102.6L164.1,102.6c0-6.1,4.3-11.1,10.3-11.1c6.7,0,10.1,5.3,10.1,11.4
			c0,0.4,0,0.9-0.1,1.4h-15.5c0.5,3.4,3,5.4,6.1,5.4c2.4,0,4-0.9,5.7-2.5l2.8,2.5c-2,2.4-4.8,4-8.6,4
			C168.8,113.5,164.1,109.1,164.1,102.6z M179.7,101c-0.3-3.1-2.2-5.6-5.4-5.6c-3,0-5,2.3-5.5,5.6H179.7z"/>
		<path id="XMLID_175_" class="st0" d="M187.3,110.3l2.2-3.3c2.3,1.7,4.8,2.6,6.9,2.6c2.1,0,3.3-0.9,3.3-2.3v-0.1
			c0-1.6-2.2-2.2-4.7-3c-3.1-0.9-6.6-2.2-6.6-6.2V98c0-4,3.3-6.4,7.5-6.4c2.6,0,5.5,0.9,7.8,2.4l-1.9,3.4c-2-1.2-4.2-2-6-2
			c-1.9,0-3,0.9-3,2.1v0.1c0,1.5,2.3,2.2,4.8,3c3.1,1,6.6,2.4,6.6,6.2v0.1c0,4.4-3.4,6.6-7.8,6.6
			C193.2,113.5,189.9,112.4,187.3,110.3z"/>
		<path id="XMLID_172_" class="st0" d="M208.7,84.1h5.2v4.6h-5.2V84.1z M208.9,91.9h4.8v21.1h-4.8V91.9z"/>
		<path id="XMLID_169_" class="st0" d="M218.6,102.5L218.6,102.5c0-7.1,4.8-11.1,9.8-11.1c3.5,0,5.7,1.8,7.2,3.7V83.8h4.8v29.2h-4.8
			v-3.5c-1.6,2.2-3.8,4-7.2,4C223.4,113.5,218.6,109.5,218.6,102.5z M235.7,102.5L235.7,102.5c0-4.2-2.9-6.8-6.1-6.8
			c-3.3,0-6.1,2.6-6.1,6.8v0.1c0,4.1,2.8,6.8,6.1,6.8C232.8,109.3,235.7,106.6,235.7,102.5z"/>
		<path id="XMLID_166_" class="st0" d="M244.9,102.6L244.9,102.6c0-6.1,4.3-11.1,10.3-11.1c6.7,0,10.1,5.3,10.1,11.4
			c0,0.4,0,0.9-0.1,1.4h-15.5c0.5,3.4,3,5.4,6.1,5.4c2.4,0,4-0.9,5.7-2.5l2.8,2.5c-2,2.4-4.8,4-8.6,4
			C249.7,113.5,244.9,109.1,244.9,102.6z M260.6,101c-0.3-3.1-2.2-5.6-5.4-5.6c-3,0-5,2.3-5.5,5.6H260.6z"/>
		<path id="XMLID_164_" class="st0" d="M269.9,91.9h4.8v3.3c1.4-2,3.3-3.7,6.6-3.7c4.8,0,7.5,3.2,7.5,8.1v13.5H284v-12
			c0-3.3-1.6-5.2-4.5-5.2c-2.8,0-4.8,2-4.8,5.2v11.9h-4.8V91.9z"/>
		<path id="XMLID_162_" class="st0" d="M293.1,102.6L293.1,102.6c0-6.1,4.6-11.1,11-11.1c4,0,6.5,1.5,8.4,3.6l-3,3.2
			c-1.5-1.6-3-2.6-5.5-2.6c-3.5,0-6.1,3-6.1,6.7v0.1c0,3.8,2.6,6.8,6.3,6.8c2.3,0,4-1.1,5.5-2.6l2.9,2.9c-2.1,2.3-4.5,4-8.6,4
			C297.8,113.5,293.1,108.6,293.1,102.6z"/>
		<path id="XMLID_159_" class="st0" d="M316.9,84.1h5.2v4.6h-5.2V84.1z M317.1,91.9h4.8v21.1h-4.8V91.9z"/>
		<path id="XMLID_156_" class="st0" d="M340.8,113.1v-2.6c-1.4,1.7-3.6,3-6.8,3c-4,0-7.5-2.3-7.5-6.5v-0.1c0-4.7,3.6-6.9,8.6-6.9
			c2.6,0,4.2,0.4,5.8,0.9v-0.4c0-2.9-1.8-4.5-5.2-4.5c-2.4,0-4.1,0.5-6,1.3l-1.3-3.9c2.3-1,4.6-1.8,8-1.8c6.2,0,9.3,3.3,9.3,8.9
			v12.5H340.8z M340.9,104.2c-1.2-0.5-3-0.8-4.8-0.8c-3,0-4.8,1.2-4.8,3.3v0.1c0,2,1.8,3.1,4.1,3.1c3.2,0,5.6-1.8,5.6-4.4V104.2z"/>
		<path id="XMLID_153_" class="st0" d="M361.5,102.5L361.5,102.5c0-7.1,4.8-11.1,9.8-11.1c3.5,0,5.7,1.8,7.2,3.7V83.8h4.8v29.2h-4.8
			v-3.5c-1.6,2.2-3.8,4-7.2,4C366.3,113.5,361.5,109.5,361.5,102.5z M378.6,102.5L378.6,102.5c0-4.2-2.9-6.8-6.1-6.8
			c-3.3,0-6.1,2.6-6.1,6.8v0.1c0,4.1,2.8,6.8,6.1,6.8C375.7,109.3,378.6,106.6,378.6,102.5z"/>
		<path id="XMLID_150_" class="st0" d="M387.8,102.6L387.8,102.6c0-6.1,4.3-11.1,10.3-11.1c6.7,0,10.1,5.3,10.1,11.4
			c0,0.4,0,0.9-0.1,1.4h-15.5c0.5,3.4,3,5.4,6.1,5.4c2.4,0,4-0.9,5.7-2.5l2.8,2.5c-2,2.4-4.8,4-8.6,4
			C392.5,113.5,387.8,109.1,387.8,102.6z M403.5,101c-0.3-3.1-2.2-5.6-5.4-5.6c-3,0-5,2.3-5.5,5.6H403.5z"/>
		<path id="XMLID_148_" class="st0" d="M424.7,83.8h4.8v29.2h-4.8V83.8z"/>
		<path id="XMLID_145_" class="st0" d="M448.4,113.1v-2.6c-1.4,1.7-3.6,3-6.8,3c-4,0-7.5-2.3-7.5-6.5v-0.1c0-4.7,3.6-6.9,8.6-6.9
			c2.6,0,4.2,0.4,5.8,0.9v-0.4c0-2.9-1.8-4.5-5.2-4.5c-2.4,0-4.1,0.5-6,1.3l-1.3-3.9c2.3-1,4.6-1.8,8-1.8c6.2,0,9.3,3.3,9.3,8.9
			v12.5H448.4z M448.5,104.2c-1.2-0.5-3-0.8-4.8-0.8c-3,0-4.8,1.2-4.8,3.3v0.1c0,2,1.8,3.1,4.1,3.1c3.2,0,5.6-1.8,5.6-4.4V104.2z"/>
		<path id="XMLID_143_" class="st0" d="M470.7,85h4.6l15,19.4V85h4.8v28H491l-15.5-19.9v19.9h-4.8V85z"/>
		<path id="XMLID_140_" class="st0" d="M514.3,113.1v-2.6c-1.4,1.7-3.6,3-6.8,3c-4,0-7.5-2.3-7.5-6.5v-0.1c0-4.7,3.6-6.9,8.6-6.9
			c2.6,0,4.2,0.4,5.8,0.9v-0.4c0-2.9-1.8-4.5-5.2-4.5c-2.4,0-4.1,0.5-6,1.3l-1.3-3.9c2.3-1,4.6-1.8,8-1.8c6.2,0,9.3,3.3,9.3,8.9
			v12.5H514.3z M514.4,104.2c-1.2-0.5-3-0.8-4.8-0.8c-3,0-4.8,1.2-4.8,3.3v0.1c0,2,1.8,3.1,4.1,3.1c3.2,0,5.6-1.8,5.6-4.4V104.2z"/>
		<path id="XMLID_138_" class="st0" d="M523.3,102.6L523.3,102.6c0-6.1,4.6-11.1,11-11.1c4,0,6.5,1.5,8.4,3.6l-3,3.2
			c-1.5-1.6-3-2.6-5.5-2.6c-3.5,0-6.1,3-6.1,6.7v0.1c0,3.8,2.6,6.8,6.3,6.8c2.3,0,4-1.1,5.5-2.6l2.9,2.9c-2.1,2.3-4.5,4-8.6,4
			C528,113.5,523.3,108.6,523.3,102.6z"/>
		<path id="XMLID_135_" class="st0" d="M547,84.1h5.2v4.6H547V84.1z M547.2,91.9h4.8v21.1h-4.8V91.9z"/>
		<path id="XMLID_131_" class="st0" d="M556.8,102.6L556.8,102.6c0-6.1,4.8-11.1,11.3-11.1c6.5,0,11.3,4.9,11.3,11v0.1
			c0,6-4.8,11-11.3,11C561.6,113.5,556.8,108.6,556.8,102.6z M574.5,102.6L574.5,102.6c0-3.8-2.7-6.9-6.5-6.9c-3.9,0-6.4,3-6.4,6.7
			v0.1c0,3.7,2.7,6.8,6.4,6.8C572,109.3,574.5,106.3,574.5,102.6z M570.4,82.7l4.4,2l-4.9,4.6h-3.8L570.4,82.7z"/>
		<path id="XMLID_129_" class="st0" d="M583.9,91.9h4.8v3.3c1.4-2,3.3-3.7,6.6-3.7c4.8,0,7.5,3.2,7.5,8.1v13.5H598v-12
			c0-3.3-1.6-5.2-4.5-5.2c-2.8,0-4.8,2-4.8,5.2v11.9h-4.8V91.9z"/>
	</g>
	<g id="XMLID_3_">
		<path id="XMLID_127_" class="st1" d="M46.8,36.3l-7,1l7,1c0.1,0,0.1,0.1,0.2,0.2c0,0.1,0,0.2-0.1,0.2c0,0-1,0.6-2.3,0.9
			c-0.6,0.1-1.8,0.4-3,0.8c-0.5,0.2-0.9,0.4-1.3,0.6c1.2-0.3,2-0.2,2.9-0.1c0.1,0,0.9,0.1,1.2,0.1c0.3,0,0.7,0,1,0
			c0,0,0.1,0,0.1-0.1c1.1-0.8,2.6-1.4,4.2-1.9c0.2,0,0.4,0,0.5,0.1c0.1,0.1,0.2,0.3,0.2,0.5c0,0,0,0.1,0,0.2
			c0.4-0.2,0.8-0.4,1.2-0.6c1.2-0.5,2.7-0.9,4.4-1c0.2,0,0.3,0,0.4,0.2c0.1,0.1,0.2,0.3,0.1,0.5c0,0,0,0,0,0.1
			c0.5-0.2,1.1-0.4,1.7-0.5c1.3-0.3,2.9-0.3,4.6-0.1c0.2,0,0.3,0.1,0.4,0.3c0,0.1,0.1,0.2,0.1,0.3c0.5-0.1,1-0.1,1.6-0.1
			c1.4,0,2.9,0.3,4.5,0.9c0.2,0.1,0.3,0.2,0.3,0.4c0,0,0,0.1,0,0.1c1,0,2.1,0.2,3.4,0.7c0.1,0,0.1,0,0.2,0c0.6,0.1,1.8,0.3,3.1,0.4
			c0.5,0,1,0,1.4,0c-1.3-0.2-2-0.6-2.7-1c-0.3-0.2-0.7-0.4-1.1-0.5c-1.4-0.6-2.7-0.8-2.7-0.8c-0.1,0-0.2-0.1-0.2-0.2
			c0-0.1,0.1-0.2,0.2-0.2l7-1l-7-1c-0.1,0-0.2-0.1-0.2-0.2c0-0.1,0-0.2,0.1-0.2c0,0,1-0.6,2.3-0.9c0.6-0.1,1.8-0.4,3-0.8
			c0.5-0.2,0.9-0.4,1.3-0.6c-1.2,0.3-2,0.2-2.9,0.1c-0.4,0-0.8-0.1-1.2-0.1c-1.5,0-2.8,0.3-2.8,0.3c-0.1,0-0.2,0-0.2-0.1
			c0-0.1,0-0.2,0.1-0.2l6-3.6l-6.8,1.7c-0.1,0-0.2,0-0.2-0.1c0-0.1,0-0.2,0-0.2c0,0,0.7-0.9,1.8-1.7c0.5-0.3,1.5-1.1,2.4-1.9
			c0.4-0.4,0.7-0.7,1-1c-1,0.7-1.8,1-2.7,1.2c-0.4,0.1-0.7,0.2-1.1,0.4c-1.4,0.5-2.5,1.3-2.5,1.3c-0.1,0.1-0.2,0-0.3,0
			c-0.1-0.1-0.1-0.2,0-0.3l4.2-5.6l-5.6,4.2c-0.1,0.1-0.2,0.1-0.2,0c-0.1,0-0.1-0.1-0.1-0.2c0,0,0.3-1.1,1-2.3
			c0.3-0.5,1-1.5,1.5-2.7c0.2-0.5,0.4-0.9,0.5-1.3c-0.7,1.1-1.3,1.6-2,2.1c-0.3,0.2-0.6,0.5-0.9,0.8c-1.1,1-1.8,2.2-1.8,2.2
			c-0.1,0.1-0.2,0.1-0.3,0.1c-0.1,0-0.1-0.1-0.1-0.2l1.7-6.8l-3.6,6c0,0.1-0.1,0.1-0.2,0.1c-0.1,0-0.1-0.1-0.2-0.2
			c0,0-0.2-1.1,0-2.5c0.1-0.6,0.3-1.8,0.4-3.1c0-0.5,0-1,0-1.4c-0.2,1.3-0.6,2-1,2.7c-0.2,0.3-0.4,0.7-0.5,1.1
			c-0.6,1.4-0.8,2.7-0.8,2.7c0,0.1-0.1,0.2-0.2,0.2l0,0c-0.1,0-0.2-0.1-0.2-0.2l-1-6.9l-1,6.9c0,0.1-0.1,0.2-0.2,0.2
			c-0.1,0-0.2,0-0.2-0.1c0,0-0.6-1-0.9-2.3c-0.1-0.6-0.4-1.8-0.8-3c-0.2-0.5-0.4-0.9-0.6-1.3c0.3,1.2,0.2,2,0.1,2.9
			c0,0.4-0.1,0.8-0.1,1.2c0,1.5,0.3,2.8,0.3,2.8c0,0.1,0,0.2-0.1,0.2c-0.1,0-0.2,0-0.3-0.1l-3.6-6l1.7,6.8c0,0.1,0,0.2-0.1,0.2
			c-0.1,0.1-0.2,0.1-0.2,0c0,0-0.9-0.7-1.7-1.8c-0.3-0.5-1.1-1.5-1.9-2.4c-0.4-0.4-0.7-0.7-1-1c0.7,1,1,1.8,1.2,2.7
			c0.1,0.4,0.2,0.7,0.4,1.1c0.5,1.4,1.3,2.5,1.3,2.5c0.1,0.1,0.1,0.2,0,0.3c-0.1,0.1-0.2,0.1-0.3,0l-5.7-4.2l4.2,5.6
			c0.1,0.1,0.1,0.2,0,0.2c0,0.1-0.1,0.1-0.2,0.1c0,0-1.1-0.3-2.3-1c-0.5-0.3-1.5-1-2.7-1.5c-0.5-0.2-0.9-0.4-1.3-0.5
			c1.1,0.7,1.6,1.3,2.1,2c0.2,0.3,0.5,0.6,0.8,0.9c1,1.1,2.2,1.8,2.2,1.8c0.1,0.1,0.1,0.2,0.1,0.3c0,0.1-0.1,0.1-0.2,0.1l-6.8-1.7
			l6,3.6c0.1,0,0.1,0.1,0.1,0.2c0,0.1-0.1,0.1-0.2,0.2c0,0-1.1,0.2-2.5,0c-0.6-0.1-1.8-0.3-3.1-0.4c-0.5,0-1,0-1.4,0
			c1.3,0.2,2,0.6,2.7,1c0.3,0.2,0.7,0.4,1.1,0.5c1.4,0.6,2.7,0.8,2.7,0.8c0.1,0,0.2,0.1,0.2,0.2C47,36.2,46.9,36.2,46.8,36.3z"/>
		<g id="XMLID_122_">
			<path id="XMLID_126_" class="st2" d="M61.3,32.3c5.8-0.9,6.5,0.7,6.5,0.7s0.2,0.4,0.6,0.3c0,0,0.4,0,0.2-0.5c0,0-0.6-1.9-3.7-2.2
				c0,0-1.6-0.2-3.3,0.1c-0.5,0.1-0.7,1.2-0.7,1.2C60.7,32.4,61.3,32.3,61.3,32.3z"/>
			<path id="XMLID_125_" class="st2" d="M56.3,33.4c-0.7-0.3-2.3-0.3-2.3-0.3c-2.6,0.1-3.3,1.7-3.3,1.7c-0.2,0.5,0.2,0.6,0.2,0.6
				c0.5,0.1,0.7-0.3,0.7-0.3s0.2-0.5,1.2-0.7c-0.1,0.2-0.1,0.3-0.1,0.5c0,0.8,0.6,1.4,1.3,1.4c0.7,0,1.3-0.6,1.3-1.4
				c0-0.2,0-0.4-0.1-0.5c0.4,0.1,0.7,0.4,1,0.9c0.1,0.2,0.3,0.3,0.8,0.3c0.5,0,0.4-0.4,0.4-0.4C57.2,33.8,56.3,33.4,56.3,33.4z"/>
			<path id="XMLID_124_" class="st2" d="M61.1,35.5c0.5,0,0.7-0.1,0.8-0.3c0.2-0.5,0.6-0.7,1-0.9c-0.1,0.2-0.1,0.3-0.1,0.5
				c0,0.8,0.6,1.4,1.3,1.4c0.7,0,1.3-0.6,1.3-1.4c0-0.2,0-0.3-0.1-0.5c1.1,0.3,1.2,0.7,1.2,0.7s0.2,0.4,0.7,0.3c0,0,0.5-0.1,0.2-0.6
				c0,0-0.7-1.6-3.3-1.7c0,0-1.6-0.1-2.3,0.3c0,0-0.9,0.4-1.2,1.8C60.7,35.2,60.6,35.5,61.1,35.5z"/>
			<path id="XMLID_123_" class="st2" d="M49.9,33.3c0.5,0.1,0.6-0.3,0.6-0.3s0.6-1.7,6.5-0.7c0,0,0.5,0.1,0.5-0.4
				c0,0-0.1-1.1-0.7-1.2c-1.8-0.3-3.3-0.1-3.3-0.1c-3.1,0.3-3.7,2.2-3.7,2.2C49.5,33.3,49.9,33.3,49.9,33.3z"/>
		</g>
		<g id="XMLID_120_">
			<path id="XMLID_121_" class="st0" d="M58.1,77.3H51c-1.5,0-2.4-0.6-2.8-1.2c-0.4-0.5-0.6-1.1-0.7-1.7c0-0.1,0-0.1,0-0.2
				c-0.1-0.6-0.1-1.4,0.1-2.1c0.9-4.6,2.8-7.8,4.3-9.7c-0.2-0.1-0.3-0.1-0.5-0.2c-1-0.5-1.5-1.7-1.2-2.9c0.3-1.5,1.7-3.1,2-3.4
				c2.4-2.8,6.1-3,6.5-3c0.5,0,5.3-0.2,7.9,4.8c3.1,6,3.8,10.9,4.4,14.9l0,0.2c0.1,0.7,0.1,1.3-0.1,1.7c0,0.1,0,0.1,0,0.2
				c-0.2,0.5-0.5,1-0.7,1.2c-0.6,0.7-1.6,1.1-2.8,1.3c-0.5,0.1-1,0.1-1.2,0.1c-0.1,0-0.2,0-0.3,0h-2c0,0,0,0,0,0c0,0,0,0,0,0h-3.4
				v10h31.6c0-5.9-0.9-11.5-2.6-16.9c-1.7-5.2-4-9.8-7-13.8c-3-4-6.5-7.1-10.4-9.2c-4-2.2-8.3-3.4-12.6-3.4c-4.4,0-8.6,1.1-12.6,3.4
				c-3.9,2.2-7.4,5.3-10.4,9.2c-3,4-5.4,8.6-7,13.8c-1.7,5.3-2.6,11-2.6,16.9h31.6V77.3z"/>
		</g>
		<g id="XMLID_117_">
			<path id="XMLID_119_" class="st3" d="M26.5,87.3c0,4.4,0.5,8.8,1.5,13C42.1,98.7,50.5,97,53,95.3c1.8-1.2,3.2-2,5-1.9v-6.1H26.5z
				"/>
			<path id="XMLID_118_" class="st3" d="M60.2,93.7c1.3,0.2,2.2,0.6,3.2,1.1c0.1,0,0.2,0,0.3,0c1.8-0.1,3.4,0.5,5.5,1.2
				c0.6,0.2,1.2,0.5,2,0.7c0.3,0.1,10.5,3.3,19.1,3.8c1-4.2,1.5-8.6,1.5-13.2H60.2V93.7z"/>
		</g>
		<polygon id="XMLID_116_" class="st2" points="57,38.6 57,38.6 57,38.6 		"/>
		<g id="XMLID_113_">
			<path id="XMLID_115_" class="st4" d="M49.5,75c-0.1-0.1-0.1-0.2-0.2-0.4c3-1.4,4.4-1.7,8.5,0.9H51C50.3,75.6,49.8,75.4,49.5,75z"
				/>
			<path id="XMLID_114_" class="st4" d="M65.8,75.6C65.8,75.6,65.7,75.6,65.8,75.6h-2.2c-0.4,0-2.6-0.1-4.6-1.3
				c-4.8-3.1-6.9-2.7-9.9-1.4c0-0.1,0-0.3,0.1-0.4c0.8-4,2.4-6.8,3.6-8.4c0.9-1.2,1.7-2,2.1-2.3c0.1-0.1,0.3-0.2,0.4-0.3
				c0.4-0.3,0.4-0.8,0.1-1.2c-0.3-0.4-0.8-0.5-1.2-0.2c0,0-0.2,0.1-0.4,0.3c-0.7,0.5-1.3,0.5-1.6,0.3c-0.3-0.2-0.5-0.6-0.4-1.1
				c0.2-0.9,1.2-2.1,1.5-2.4c0,0,0,0,0,0c2-2.4,5.2-2.4,5.2-2.4c0,0,0.1,0,0.1,0c0,0,1-0.1,2.3,0.3c1.7,0.6,3,1.7,3.9,3.5
				c1.4,2.8,2.3,5.3,2.9,7.6c-1.8-0.6-3.3-1.8-3.4-1.9c-0.4-0.3-0.9-0.3-1.2,0.1c-0.3,0.4-0.3,0.9,0.1,1.2c0.1,0.1,2.3,1.9,4.9,2.4
				c0.2,1.1,0.4,2.1,0.6,3.1c-0.9-0.5-1.9-0.7-2.8-1c-0.6-0.1-1.1-0.3-1.5-0.5c-1.8-0.7-3.4-1.9-3.4-1.9c-0.4-0.3-0.9-0.2-1.2,0.1
				c-0.3,0.4-0.2,0.9,0.1,1.2c0.1,0.1,1.7,1.4,3.8,2.2c0.5,0.2,1.1,0.4,1.7,0.5c2.3,0.6,3.4,1.1,3.4,2.3c-0.1,0.2-0.2,0.4-0.3,0.5
				C68,75.5,66.3,75.6,65.8,75.6z"/>
		</g>
		<polygon id="XMLID_112_" class="st2" points="50.5,39.5 50.5,39.5 50.5,39.5 		"/>
		<polygon id="XMLID_111_" class="st2" points="50.5,39.5 50.5,39.5 50.5,39.5 		"/>
		<g id="XMLID_104_">
			<path id="XMLID_110_" class="st5" d="M56.5,108.3c-0.7-0.6-1.4-0.3-2.7,0.7c-0.6,0.4-1.5,1.2-1.4,1.9c0,0.3,0.2,0.5,0.3,0.5
				c0.4,0.3,1.3,0.2,1.8,0.2c0.4-0.9,1.1-1.5,1.7-2c0.3-0.2,0.6-0.6,0.6-0.8C56.8,108.6,56.7,108.5,56.5,108.3z"/>
			<path id="XMLID_109_" class="st5" d="M55.8,112.2c0.2,0.3,0.4,0.3,0.6,0.4c0.8,0.2,2-0.5,2.3-0.8c0,0,0,0,0,0c0,0,0,0,0.1,0
				c0,0,0,0,0,0c0.2-0.1,0.7-0.6,0.8-1c0-0.1,0-0.3-0.3-0.5c0,0-0.5-0.4-1.5,0.2C57,110.8,56.2,111.4,55.8,112.2z"/>
			<path id="XMLID_108_" class="st5" d="M49.3,106c-0.7-0.1-1.9,0.4-2.4,1.1c-0.3,0.5-0.2,0.7-0.2,0.8c0.1,0.2,0.5,0.4,1,0.4
				c0.1,0,0.3,0,0.4,0c0.2-0.8,0.7-1.4,1.2-1.9c0.1-0.1,0.3-0.3,0.5-0.5C49.7,106,49.5,106,49.3,106C49.4,106,49.3,106,49.3,106z"/>
			<path id="XMLID_107_" class="st5" d="M52.9,106.7c-0.7-0.4-1.5-0.1-2.5,0.9c-0.6,0.6-0.9,1-0.9,1.5c0,0.2,0.1,0.6,0.9,0.9
				c0.2,0.1,0.3,0.1,0.5,0.1c0.2-0.8,0.9-1.6,2-2.4c0.2-0.1,0.3-0.2,0.5-0.3c0-0.1,0-0.2,0-0.2C53.4,107,53.1,106.8,52.9,106.7z"/>
			<path id="XMLID_106_" class="st5" d="M71.8,106.4c-0.5-0.6-2.1-2.6-4.4-4c-0.9-0.6-1.9-1.2-3-1.6c-1.2-0.4-2.1-0.5-3-0.3
				c0,0,0,0,0,0c-0.3,0.1-0.6,0.3-1.1,0.6c-0.3,0.2-0.6,0.4-0.9,0.6c-1,0.6-2.3,1-3.4,1c-1,0.1-2.2,0.1-2.9-0.9
				c-0.5-0.7-0.6-1.3-0.3-2c0,0,0,0,0,0c0.2-0.6,1-1,2-1.5c0.4-0.2,0.9-0.4,1.2-0.6c0.5-0.3,0.8-0.5,1.1-0.8
				c0.4-0.3,0.8-0.6,1.4-1.1c0.4-0.3,0.8-0.5,1.2-0.6c-0.4-0.1-0.8-0.1-1.4-0.2c-1.6-0.1-2.8,0.4-4.4,1.6c0,0,0,0,0,0
				c-1.4,0.9-4.2,1.8-8.5,2.7c-4.2,0.8-9.9,1.7-17,2.5c0.2,0.8,0.5,1.6,0.7,2.4c0.9,2.9,2,5.5,3.4,8.1c2.5-1.1,8.7-3.9,13.6-6.5
				c0.9-0.9,2.3-1.4,3.5-1.3c0.2,0,1.2,0.1,1.8,0.7c0.8-0.3,1.5-0.2,2.2,0.1c0.8,0.4,1.1,0.9,1.3,1.3c0,0,0.1,0,0.1,0
				c1-0.3,1.8-0.1,2.6,0.5c0.6,0.5,0.8,1,0.8,1.4c1-0.2,1.7,0.2,2,0.5c0.7,0.7,0.8,1.3,0.7,1.8c0,0.4-0.2,0.8-0.4,1.1
				c0.5,0.1,1.1,0,1.5-0.2c0.2-0.1,0.4-0.2,0.5-0.3c-0.2-0.4-0.6-1.1-1.2-1.8c-0.3-0.3-0.2-0.8,0.1-1.1c0.3-0.3,0.8-0.3,1.1,0.1
				c0.9,1,1.3,1.8,1.5,2.3c0.5,0.1,0.9-0.1,1.2-0.4c0.2-0.2,0.3-0.4,0.4-0.6c-0.1-0.2-0.3-0.6-0.9-1.3c-0.5-0.6-1.6-1.4-1.9-1.6
				c-0.3-0.2-0.4-0.7-0.2-1.1c0.2-0.3,0.7-0.4,1.1-0.2c0.1,0,1.5,1.1,2.2,1.9c0.6,0.7,1,1.2,1.1,1.6c0.7,0,1.2-0.2,1.5-0.6
				c0.1-0.2,0.2-0.3,0.3-0.5c-0.6-0.8-2.3-2.9-4.3-3.9c-0.4-0.2-0.5-0.6-0.3-1c0.2-0.4,0.6-0.5,1-0.4c2.4,1.2,4.2,3.5,4.9,4.3
				c0.5,0,0.9-0.1,1.2-0.4C71.7,107,71.8,106.6,71.8,106.4z"/>
			<path id="XMLID_105_" class="st5" d="M77.3,99.9c-3.8-0.9-6.5-1.8-6.6-1.8c0,0,0,0,0,0c-0.7-0.2-1.4-0.5-2-0.7
				c-2-0.7-3.4-1.2-4.9-1.2c-0.2,0-0.4,0-0.5,0h0c-0.2,0-0.5,0-0.7,0c-1.4,0-2.3,0-3.2,0.6c-0.6,0.4-1,0.7-1.3,1
				c-0.4,0.3-0.7,0.6-1.2,0.9c-0.4,0.3-0.9,0.5-1.3,0.7c-0.4,0.2-1.1,0.5-1.2,0.7c0,0.1-0.1,0.2,0.1,0.5c0.2,0.3,0.7,0.3,1.6,0.3
				c0.7,0,1.8-0.3,2.7-0.8c0.3-0.2,0.6-0.4,0.9-0.5c0.6-0.4,1-0.7,1.6-0.8c2.8-0.7,5.6,1.1,7.2,2.1c2.1,1.4,3.7,3.1,4.4,4
				c0,0,0.1,0.1,0.1,0.2c0,0,0,0,0,0l0,0c0.2,0.3,0.8,0.8,1.5,1.3l0,0c3.6,2.7,9,5,11.3,6c1.4-2.6,2.6-5.4,3.5-8.3
				c0.2-0.7,0.5-1.5,0.7-2.2C85.4,101.7,80.6,100.7,77.3,99.9z"/>
		</g>
		<path id="XMLID_103_" class="st3" d="M73.1,107.5c-0.1,0.3-0.3,0.6-0.6,0.8c-0.5,0.5-1.2,0.8-2.1,0.8c-0.1,0.2-0.3,0.5-0.5,0.8
			c-0.5,0.6-1.3,1.1-2.8,1.1c-0.1,0.2-0.3,0.5-0.6,0.8c-0.7,0.7-1.6,1-2.7,0.8c-0.2,0.2-0.6,0.4-1.1,0.6c-0.6,0.2-1.5,0.4-2.5,0.2
			v8.4c0,0.6-0.5,1.1-1.1,1.1c-0.6,0-1.1-0.5-1.1-1.1v-8c-0.4,0.2-0.9,0.3-1.4,0.3c-0.2,0-0.4,0-0.6-0.1c-0.6-0.1-1.1-0.4-1.5-0.9
			c-0.7,0.1-1.9,0.2-2.8-0.4c-0.4-0.2-0.6-0.6-0.8-1c-0.3,0-0.6-0.1-1-0.2c-0.9-0.3-1.6-0.8-1.9-1.6c-0.2,0-0.5,0-0.7-0.1
			c-0.8-0.1-1.8-0.4-2.1-1.3c-0.1-0.2-0.1-0.4-0.2-0.6c-4.5,2.3-9.6,4.6-11.9,5.6c0.9,1.5,1.9,3,2.9,4.4c3,4,6.5,7.1,10.4,9.2
			c1.8,1,3.7,1.8,5.6,2.4c0.2-0.4,0.5-0.7,0.8-0.9c1.8-1.2,5.3-0.3,6.2,0c1-0.3,4.4-1.1,6.2,0c0.4,0.2,0.6,0.5,0.8,0.9
			c1.9-0.6,3.8-1.3,5.6-2.4c3.9-2.2,7.4-5.3,10.4-9.2c1-1.3,1.9-2.7,2.8-4.1C82.4,112.8,76.7,110.3,73.1,107.5z"/>
		<path id="XMLID_53_" class="st2" d="M98.4,95.1C98.3,95,98.1,95,98,95c0.1-0.3,0.3-0.6,0.4-0.9c0.5-1.3,0.8-2.9,0.8-4.6
			c0-0.2-0.1-0.4-0.3-0.6c-0.1-0.1-0.3-0.1-0.5-0.1c0.1-0.3,0.2-0.6,0.3-0.9c0.4-1.4,0.5-2.9,0.3-4.7c0-0.2-0.2-0.4-0.4-0.5
			c-0.1-0.1-0.3-0.1-0.5-0.1c0.1-0.3,0.2-0.7,0.2-1c0.2-1.4,0.2-3-0.1-4.7c0-0.2-0.2-0.4-0.4-0.5c-0.1,0-0.2-0.1-0.4,0
			c0-0.2,0.1-0.5,0.1-0.7c0.2-1.4,0-3-0.4-4.6c-0.1-0.2-0.2-0.4-0.4-0.5c-0.2-0.1-0.5,0-0.6,0.1l0,0c0-0.4,0-0.7,0-1.1
			c0-1.4-0.4-3-1-4.6c-0.1-0.2-0.3-0.4-0.5-0.4c-0.2,0-0.4,0-0.5,0.1c0-0.3,0-0.7-0.1-1c-0.2-1.4-0.7-2.9-1.5-4.4
			c-0.1-0.2-0.3-0.3-0.5-0.4c-0.2,0-0.4,0-0.5,0.2c-0.1-0.3-0.1-0.6-0.2-1c-0.4-1.4-1-2.8-2-4.2c-0.1-0.2-0.3-0.3-0.6-0.3
			c-0.2,0-0.4,0.1-0.6,0.3c-0.1-0.4-0.3-0.7-0.4-1.1c-0.6-1.3-1.5-2.6-2.6-3.9c-0.2-0.2-0.4-0.2-0.6-0.2c-0.2,0-0.3,0.1-0.4,0.3
			c-0.2-0.4-0.4-0.7-0.6-1.1c-0.8-1.2-1.8-2.3-3.2-3.4c-0.2-0.1-0.4-0.2-0.6-0.1c-0.2,0.1-0.3,0.2-0.4,0.3c-0.9-1.2-2.1-2.1-3.7-2.6
			c0.3,0,0.6,0.1,0.9,0.1c1.9,0.1,3.2-0.3,3.3-0.3c0.4-0.1,0.7-0.5,0.6-0.9c-0.1-0.4-0.4-0.7-0.8-0.7c-2.1-0.1-2.8-0.5-3.8-1.1
			c-0.2-0.1-0.4-0.2-0.6-0.3l4.8-0.7c0.4-0.1,0.7-0.4,0.7-0.8c0-0.4-0.3-0.8-0.7-0.8l-4.8-0.7c0.6-0.1,1.2-0.3,1.9-0.6
			c1.8-0.6,2.8-1.5,2.9-1.5c0.3-0.3,0.4-0.7,0.2-1.1c-0.2-0.4-0.6-0.5-1-0.4c-1.9,0.7-2.8,0.6-3.9,0.5c-0.2,0-0.4,0-0.6-0.1l4.2-2.5
			c0.4-0.2,0.5-0.7,0.3-1.1c-0.2-0.4-0.6-0.6-1-0.5l-4.7,1.2c0.5-0.4,1-0.8,1.5-1.2c1.4-1.3,2.1-2.5,2.1-2.5
			c0.2-0.4,0.1-0.8-0.2-1.1c-0.3-0.3-0.8-0.2-1.1,0c-1.5,1.4-2.4,1.6-3.4,1.9c-0.2,0.1-0.4,0.1-0.6,0.2l2.9-3.9
			c0.3-0.3,0.2-0.8-0.1-1.1c-0.3-0.3-0.8-0.3-1.1-0.1l-3.9,2.9c0.3-0.5,0.6-1.1,0.9-1.7c0.8-1.7,1-3.1,1-3.1c0-0.4-0.2-0.8-0.6-0.9
			c-0.4-0.1-0.8,0.1-1,0.5c-0.9,1.9-1.6,2.4-2.4,3.1c-0.2,0.1-0.3,0.3-0.5,0.4l1.2-4.7c0.1-0.4-0.1-0.8-0.5-1
			c-0.4-0.2-0.8,0-1.1,0.4l-2.5,4.2c0.1-0.6,0.1-1.3,0.2-2c0.1-1.9-0.3-3.2-0.3-3.3c-0.1-0.4-0.5-0.7-0.9-0.6
			c-0.4,0.1-0.7,0.4-0.7,0.8c-0.1,2-0.5,2.8-1,3.8c-0.1,0.2-0.2,0.4-0.3,0.5L60,16.5c-0.1-0.4-0.4-0.7-0.8-0.7l0,0
			c-0.4,0-0.8,0.3-0.8,0.7l-0.7,4.7c-0.1-0.6-0.3-1.2-0.6-1.8c-0.6-1.8-1.5-2.8-1.5-2.9c-0.3-0.3-0.7-0.4-1.1-0.2
			c-0.4,0.2-0.5,0.6-0.4,1c0.7,1.9,0.6,2.8,0.5,3.9c0,0.2,0,0.4-0.1,0.7L52,17.8c-0.2-0.4-0.7-0.5-1.1-0.4c-0.4,0.2-0.6,0.6-0.5,1
			l1.2,4.7c-0.3-0.5-0.8-1-1.2-1.5c-1.3-1.4-2.5-2.1-2.5-2.1c-0.4-0.2-0.8-0.1-1.1,0.2c-0.3,0.3-0.2,0.8,0,1.1
			c1.4,1.5,1.6,2.4,1.9,3.4c0.1,0.2,0.1,0.4,0.2,0.6L45,22c-0.3-0.2-0.8-0.2-1.1,0.1c-0.3,0.3-0.3,0.8-0.1,1.1l2.9,3.9
			c-0.5-0.3-1.1-0.6-1.7-0.9c-1.7-0.8-3.1-1-3.1-1c-0.4,0-0.8,0.2-0.9,0.6c-0.1,0.4,0.1,0.8,0.5,1c1.9,0.9,2.4,1.6,3.1,2.4
			c0.1,0.2,0.3,0.3,0.4,0.5l-4.7-1.2c-0.4-0.1-0.8,0.1-1,0.5c-0.2,0.4,0,0.8,0.4,1.1l4.2,2.5c-0.6-0.1-1.2-0.1-2-0.2
			c-1.9-0.1-3.2,0.3-3.3,0.3c-0.4,0.1-0.6,0.5-0.6,0.9c0.1,0.4,0.4,0.7,0.8,0.7c2,0.1,2.8,0.5,3.8,1c0.2,0.1,0.4,0.2,0.6,0.3
			l-4.8,0.7c-0.4,0.1-0.7,0.4-0.7,0.9c0,0.4,0.3,0.8,0.7,0.9l4.8,0.7c-0.6,0.2-1.2,0.3-1.9,0.6c-1.8,0.6-2.8,1.5-2.9,1.5
			c-0.3,0.3-0.4,0.7-0.2,1.1c0.2,0.4,0.6,0.5,1,0.4c1.1-0.4,1.9-0.5,2.5-0.6c-1,0.9-1.8,1.6-2.1,2.1c-0.2,0.2-0.4,0.5-0.5,0.7
			c-0.1-0.1-0.2-0.2-0.4-0.3c-0.2-0.1-0.5,0-0.6,0.1c-1.4,1.1-2.4,2.2-3.2,3.4c-0.2,0.3-0.4,0.7-0.6,1.1c-0.1-0.2-0.3-0.3-0.5-0.3
			c-0.2,0-0.5,0-0.6,0.2c-1.2,1.3-2.1,2.6-2.6,3.9c-0.2,0.3-0.3,0.7-0.4,1.1c-0.1-0.1-0.3-0.2-0.4-0.2c-0.2,0-0.4,0.1-0.6,0.3
			c-1,1.4-1.7,2.8-2.2,4.1c-0.1,0.4-0.2,0.7-0.3,1.1c-0.1-0.2-0.4-0.2-0.6-0.2c-0.2,0-0.4,0.2-0.5,0.4c-0.8,1.5-1.3,3-1.5,4.4
			c-0.1,0.4-0.1,0.7-0.1,1.1c-0.2-0.1-0.4-0.2-0.6-0.1c-0.2,0-0.4,0.2-0.5,0.4c-0.6,1.6-0.9,3.1-0.9,4.6c0,0.4,0,0.7,0,1
			c-0.2-0.1-0.4-0.1-0.6,0c-0.2,0.1-0.4,0.3-0.4,0.5c-0.4,1.7-0.5,3.2-0.4,4.6c0,0.3,0.1,0.5,0.1,0.8c-0.1,0-0.2,0-0.3,0
			c-0.2,0.1-0.4,0.3-0.4,0.5c-0.3,1.7-0.4,3.2-0.1,4.7c0.1,0.4,0.1,0.7,0.2,1.1c-0.1,0-0.2,0-0.3,0.1c-0.2,0.1-0.3,0.3-0.4,0.5
			c-0.2,1.7-0.2,3.3,0.1,4.7c0.1,0.3,0.1,0.6,0.2,0.9c-0.2,0-0.3,0-0.4,0.1c-0.2,0.1-0.3,0.3-0.3,0.6c0,1.7,0.2,3.3,0.6,4.6
			c0.1,0.4,0.3,0.8,0.5,1.1c0,0-0.1,0-0.1,0c-0.2-0.1-0.5,0-0.6,0.2c-0.2,0.2-0.3,0.4-0.2,0.6c0.3,1.7,0.8,3.2,1.4,4.4
			c0.1,0.2,0.3,0.5,0.4,0.7c-0.1,0-0.2,0.1-0.3,0.2c-0.2,0.2-0.2,0.4-0.2,0.6c0.4,1.7,1,3.1,1.8,4.3c0.2,0.3,0.4,0.6,0.6,0.8
			c-0.2,0-0.4,0.1-0.5,0.3c-0.1,0.2-0.2,0.4-0.1,0.6c0.6,1.6,1.3,3,2.3,4.1c0.2,0.2,0.4,0.5,0.6,0.7c-0.2,0-0.3,0.2-0.4,0.3
			c-0.1,0.2-0.1,0.4,0,0.7c0.8,1.5,1.7,2.8,2.7,3.8c0.2,0.2,0.4,0.4,0.7,0.6c-0.2,0.1-0.3,0.2-0.3,0.3c-0.1,0.2-0.1,0.4,0,0.6
			c0.9,1.4,2,2.6,3.1,3.5c0.3,0.3,0.7,0.5,1.1,0.7c-0.1,0-0.1,0-0.1,0c-0.2,0.1-0.4,0.3-0.4,0.5c-0.1,0.2,0,0.5,0.2,0.6
			c1.2,1.2,2.4,2.2,3.6,2.9c1,0.6,2,0.9,3,1.1c0.9,0.2,1.7,0.2,2.4,0c0,0,0.1,0,0.1,0c2.1,1.5,4.3,2.7,6.6,3.7
			c1.9,0.8,3.9,1.4,5.9,1.9c0.4,0.1,0.8,0.2,1.2,0.2c-0.8-0.3-1.7-0.8-2.3-1.5c-0.1-0.1-0.2-0.3-0.3-0.4c-1.4-0.4-2.7-0.8-4.1-1.4
			c-2.2-0.9-4.3-2.1-6.4-3.5c0,0,0-0.1,0-0.1c0-0.7,0-1.4-0.2-2.1c1.5,1.2,2.8,2.1,4.2,2.9c1.9,1.1,3.9,1.9,6,2.5c0-0.1,0-0.2,0-0.4
			c0-0.3,0.1-0.7,0.3-0.9c-1.9-0.6-3.8-1.3-5.6-2.4c-3.9-2.2-7.4-5.3-10.4-9.2c-1-1.4-2-2.8-2.9-4.4c2.3-1,7.4-3.3,11.9-5.6
			c0,0.2,0.1,0.4,0.2,0.6c0.4,0.9,1.4,1.2,2.1,1.3c0.3,0,0.5,0.1,0.7,0.1c0.3,0.7,0.9,1.3,1.9,1.6c0.4,0.1,0.7,0.2,1,0.2
			c0.2,0.4,0.4,0.7,0.8,1c0.9,0.6,2.1,0.5,2.8,0.4c0.4,0.5,0.9,0.8,1.5,0.9c0.2,0,0.4,0.1,0.6,0.1c0.5,0,1-0.1,1.4-0.3v8
			c0,0.6,0.5,1.1,1.1,1.1c0.6,0,1.1-0.5,1.1-1.1v-8.4c1.1,0.2,1.9,0,2.5-0.2c0.5-0.2,0.8-0.4,1.1-0.6c1,0.2,2-0.1,2.7-0.8
			c0.3-0.3,0.4-0.5,0.6-0.8c1.4,0.1,2.3-0.5,2.8-1.1c0.2-0.3,0.4-0.6,0.5-0.8c0.9,0,1.6-0.3,2.1-0.8c0.3-0.3,0.4-0.5,0.6-0.8
			c3.6,2.8,9.3,5.3,11.9,6.4c-0.8,1.4-1.8,2.8-2.8,4.1c-3,4-6.5,7.1-10.4,9.2c-1.8,1-3.7,1.8-5.6,2.4c0.2,0.3,0.3,0.6,0.3,0.9
			c0,0.1,0,0.2,0,0.4c2.1-0.6,4.1-1.4,6-2.5c1.5-0.8,2.9-1.9,4.2-3c-0.2,0.7-0.3,1.4-0.2,2.1c0,0,0,0.1,0,0.1
			c-0.6,0.5-2.3,1.7-4.7,2.8c-1.8,0.9-3.7,1.6-5.6,2.1c-0.1,0-0.2,0-0.2,0.1c-0.1,0.1-0.1,0.2-0.2,0.3c-0.6,0.7-1.5,1.2-2.3,1.5
			c1-0.2,2.1-0.4,3.1-0.7c2-0.5,3.9-1.3,5.8-2.2c2.5-1.2,4.2-2.5,4.9-3c0,0,0.1,0,0.1,0c0.7,0.1,1.6,0.1,2.4,0c1-0.2,2-0.6,3-1.1
			c1.2-0.7,2.4-1.7,3.6-2.9c0.2-0.2,0.2-0.4,0.2-0.6c-0.1-0.2-0.2-0.4-0.4-0.5c0,0-0.1,0-0.1,0c0.4-0.2,0.7-0.5,1.1-0.7
			c1.1-0.9,2.2-2.1,3.1-3.5c0.1-0.2,0.1-0.4,0-0.6c-0.1-0.2-0.2-0.3-0.3-0.3c0.2-0.2,0.5-0.4,0.7-0.6c1-1,2-2.3,2.7-3.8
			c0.1-0.2,0.1-0.5,0-0.7c-0.1-0.2-0.3-0.3-0.5-0.3c0.2-0.2,0.5-0.5,0.7-0.8c0.9-1.1,1.7-2.5,2.3-4.1c0.1-0.2,0-0.4-0.1-0.6
			c-0.1-0.2-0.3-0.3-0.5-0.3c0,0,0,0,0,0c0.2-0.2,0.4-0.5,0.6-0.8c0.8-1.2,1.4-2.6,1.8-4.3c0.1-0.2,0-0.5-0.2-0.6
			c-0.1-0.1-0.3-0.2-0.5-0.2c0.2-0.3,0.4-0.6,0.5-0.9c0.6-1.3,1.1-2.8,1.3-4.5C98.7,95.5,98.6,95.3,98.4,95.1z M97.7,84.3
			C97.7,84.3,97.8,84.3,97.7,84.3C97.8,84.3,97.8,84.4,97.7,84.3c0.1,1.2,0,2.3-0.3,3.3c-0.3,1-0.6,1.9-1.2,2.6
			c-0.6,0.9-1.3,1.4-1.5,1.5c0,0,0,0,0,0c0,0,0,0,0,0c-1.7-1.9-1.8-4.6-1.8-6.1c0,0,0,0,0,0c0,0,0,0,0,0c0.9,1,1.5,2.2,1.5,2.2
			c0.1,0.2,0.3,0.3,0.5,0.3c0.2,0,0.4-0.1,0.4-0.3C96.1,86,97,85,97.7,84.3z M97.1,78.2C97.1,78.2,97.1,78.2,97.1,78.2
			C97.1,78.2,97.1,78.2,97.1,78.2c0.2,1.2,0.2,2.3,0.1,3.3c-0.1,1-0.5,1.9-0.9,2.7c-0.5,1-1.2,1.5-1.4,1.7c0,0,0,0,0,0c0,0,0,0,0,0
			c-1.6-1.4-2.1-4.3-2.3-5.9c0,0,0,0,0,0c0,0,0,0,0,0c1,0.9,1.6,2,1.6,2c0.1,0.2,0.3,0.3,0.5,0.2c0.2,0,0.4-0.2,0.4-0.4
			C95.6,80,96.4,78.9,97.1,78.2z M96.1,72.3C96.1,72.3,96.1,72.3,96.1,72.3C96.1,72.3,96.2,72.3,96.1,72.3c0.3,1.2,0.3,2.3,0.2,3.3
			c-0.1,1-0.4,1.9-0.8,2.7c-0.5,1-1.1,1.6-1.3,1.8c0,0,0,0,0,0c0,0,0,0,0,0c-1.4-1.2-2-2.9-2.3-4.1c-0.1-0.5-0.2-1.1-0.3-1.7
			c0,0,0,0,0,0c0,0,0,0,0,0c1,0.8,1.8,1.9,1.8,1.9c0.1,0.2,0.3,0.2,0.5,0.2c0.2,0,0.4-0.2,0.4-0.4C94.7,74.2,95.5,73,96.1,72.3z
			 M49.1,72.8c0-0.1,0-0.3,0.1-0.4c0.8-4,2.4-6.8,3.6-8.4c0.9-1.2,1.7-2,2.1-2.3c0.1-0.1,0.3-0.2,0.4-0.3c0.4-0.3,0.4-0.8,0.1-1.2
			c-0.3-0.4-0.8-0.5-1.2-0.2c0,0-0.2,0.1-0.4,0.3c-0.7,0.5-1.3,0.5-1.6,0.3c-0.3-0.2-0.5-0.6-0.4-1.1c0.2-0.9,1.2-2.1,1.5-2.4
			c0,0,0,0,0,0c2-2.4,5.2-2.4,5.2-2.4c0,0,0.1,0,0.1,0c0,0,1-0.1,2.3,0.3c1.7,0.6,3,1.7,3.9,3.5c1.4,2.8,2.3,5.3,2.9,7.6
			c-1.8-0.6-3.3-1.8-3.4-1.9c-0.4-0.3-0.9-0.3-1.2,0.1c-0.3,0.4-0.3,0.9,0.1,1.2c0.1,0.1,2.3,1.9,4.9,2.4c0.2,1.1,0.4,2.1,0.6,3.1
			c-0.9-0.5-1.9-0.7-2.8-1c-0.6-0.1-1.1-0.3-1.5-0.5c-1.8-0.7-3.4-1.9-3.4-1.9c-0.4-0.3-0.9-0.2-1.2,0.1c-0.3,0.4-0.2,0.9,0.1,1.2
			c0.1,0.1,1.7,1.4,3.8,2.2c0.5,0.2,1.1,0.4,1.7,0.5c2.3,0.6,3.4,1.1,3.4,2.3c-0.1,0.2-0.2,0.4-0.3,0.5c-0.7,0.8-2.4,0.9-3,0.9
			c0,0,0,0-0.1,0h-2.2c-0.4,0-2.6-0.1-4.6-1.3C54.3,71.2,52.1,71.5,49.1,72.8z M57.8,75.6H51c-0.7,0-1.2-0.2-1.5-0.5
			c-0.1-0.1-0.1-0.2-0.2-0.4C52.3,73.3,53.7,73,57.8,75.6z M60.2,87.3v-10h3.4c0,0,0,0,0,0c0,0,0,0,0,0h2c0,0,0.1,0,0.3,0
			c0.3,0,0.7,0,1.2-0.1c1.2-0.2,2.1-0.6,2.8-1.3c0.3-0.3,0.5-0.7,0.7-1.2c0-0.1,0-0.1,0-0.2c0.1-0.5,0.2-1.1,0.1-1.7l0-0.2
			c-0.6-4-1.3-8.9-4.4-14.9c-2.6-5-7.3-4.8-7.9-4.8c-0.4,0-4.1,0.2-6.5,3c-0.3,0.3-1.7,1.8-2,3.4c-0.2,1.3,0.3,2.4,1.2,2.9
			c0.2,0.1,0.3,0.2,0.5,0.2c-1.5,1.9-3.4,5-4.3,9.7c-0.2,0.8-0.2,1.5-0.1,2.1c0,0.1,0,0.1,0,0.2c0.1,0.7,0.4,1.3,0.7,1.7
			c0.4,0.5,1.3,1.2,2.8,1.2h7.1v10v6.1c-1.9-0.1-3.3,0.7-5,1.9c-2.5,1.7-10.9,3.3-25.1,4.9c-1-4.2-1.5-8.5-1.5-13
			c0-5.9,0.9-11.5,2.6-16.9c1.7-5.2,4-9.8,7-13.8c3-4,6.5-7.1,10.4-9.2c4-2.2,8.3-3.4,12.6-3.4c4.4,0,8.6,1.1,12.6,3.4
			c3.9,2.2,7.4,5.3,10.4,9.2c3,4,5.4,8.6,7,13.8c1.7,5.3,2.6,11,2.6,16.9c0,4.5-0.5,8.9-1.5,13.2c-8.6-0.5-18.8-3.7-19.1-3.8
			c-0.7-0.2-1.4-0.5-2-0.7c-2.1-0.8-3.7-1.3-5.5-1.2c-0.1,0-0.2,0-0.3,0c-1-0.5-2-0.9-3.2-1.1V87.3z M73.5,42.1
			c-0.5,0.2-1.3,0.5-2.2,0.7c-0.6,0.1-1.1,0.2-1.6,0.2c-1.2,0-2.3-0.3-3.2-0.9c0,0,0,0,0,0c0,0,0,0,0,0c0.4-0.2,1-0.5,1.9-0.7
			c0.9-0.2,1.8-0.2,2.7-0.1C71.9,41.3,72.7,41.6,73.5,42.1C73.6,42,73.6,42.1,73.5,42.1C73.6,42.1,73.6,42.1,73.5,42.1z M74.8,45.6
			C74.8,45.6,74.8,45.6,74.8,45.6C74.8,45.6,74.8,45.6,74.8,45.6c-0.4,0.2-0.9,0.3-1.6,0.4c-0.1,0-0.2,0-0.2,0
			c-1.5,0-2.9-0.5-4.3-1.6c0,0,0,0,0,0c0,0,0,0,0,0c0.6-0.2,1.2-0.3,1.8-0.3C72.2,43.8,73.7,44.4,74.8,45.6z M68,40.2
			c-0.6,0.3-1.6,0.6-3.1,0.8c-0.2,0-0.4,0.2-0.4,0.4c0,0.2,0,0.4,0.2,0.5c0,0,1.2,0.8,2,1.9c0,0,0,0,0,0c0,0,0,0,0,0l0,0
			c-1.4-0.1-4.1-0.5-5.9-2.7c0,0,0,0,0-0.1c0.3-0.3,0.8-0.7,1.6-1C63.9,39.5,65.8,39.5,68,40.2C68,40.1,68,40.1,68,40.2
			C68,40.1,68,40.2,68,40.2z M61.7,39.1c-0.5,0.4-1.4,1-2.9,1.4c-0.2,0.1-0.4,0.2-0.4,0.5c0,0.2,0.1,0.4,0.3,0.5
			c0,0,1.3,0.5,2.3,1.3c0,0,0,0,0,0c0,0,0,0,0,0c-0.4,0-0.8,0.1-1.3,0.1c-1.5,0-3.5-0.3-5.1-1.4c0,0,0,0,0,0
			c0.2-0.3,0.7-0.8,1.4-1.3C57.5,39.3,59.4,38.9,61.7,39.1C61.7,39.1,61.7,39.1,61.7,39.1C61.7,39.1,61.7,39.1,61.7,39.1z
			 M55.2,39.2c-0.4,0.5-1.1,1.3-2.6,2c-0.2,0.1-0.3,0.3-0.3,0.5c0,0.2,0.2,0.4,0.4,0.4c0,0,1.3,0.3,2.5,0.8c0,0,0,0,0,0c0,0,0,0,0,0
			c-0.6,0.2-1.1,0.3-1.7,0.4c-0.5,0.1-1.1,0.2-1.7,0.2c-1,0-2-0.1-3-0.6c0,0,0,0,0,0c0.2-0.4,0.5-1,1.1-1.5
			C51,40.3,52.9,39.5,55.2,39.2C55.2,39.2,55.2,39.2,55.2,39.2C55.2,39.2,55.2,39.2,55.2,39.2z M49.1,40.3c-0.3,0.7-0.9,1.7-2.3,2.9
			c-0.2,0.1-0.2,0.4-0.1,0.6c0.1,0.2,0.3,0.3,0.5,0.3c0,0,0,0,0,0c0,0,0.6,0,1.3,0.1c0.5,0.1,1,0.2,1.4,0.3c0,0,0,0,0,0c0,0,0,0,0,0
			c-0.5,0.3-1.1,0.5-1.6,0.7c-1.2,0.4-2.2,0.6-3,0.6c-0.7,0-1.3-0.1-1.8-0.2c0,0,0,0,0,0C43.6,44.4,44.6,41.8,49.1,40.3
			C49.1,40.3,49.1,40.3,49.1,40.3C49.2,40.3,49.2,40.3,49.1,40.3z M94.2,66.4C94.2,66.4,94.3,66.4,94.2,66.4
			C94.3,66.4,94.3,66.4,94.2,66.4c0.4,1.1,0.6,2.2,0.7,3.2c0,1-0.1,2-0.4,2.8c-0.3,1-0.8,1.7-1,1.9c0,0,0,0,0,0c0,0,0,0,0,0
			c-1.3-0.8-2.3-2.1-2.9-3.8c-0.2-0.5-0.4-1.1-0.5-1.6c0,0,0,0,0,0c0,0,0,0,0,0c1.1,0.7,2.1,1.7,2.1,1.7c0.1,0.2,0.3,0.2,0.5,0.1
			c0.2-0.1,0.3-0.2,0.3-0.4C93.1,68.5,93.7,67.2,94.2,66.4z M90.7,65.1c0.2-0.1,0.3-0.3,0.3-0.5c-0.1-1.8,0.4-3.1,0.8-4c0,0,0,0,0,0
			c0,0,0,0,0,0c0.5,1.1,0.8,2.1,0.9,3.1c0.1,1,0.1,2-0.1,2.9c-0.2,1-0.7,1.8-0.8,2c0,0,0,0,0,0c0,0,0,0,0,0
			c-1.4-0.7-2.5-1.8-3.3-3.5c-0.3-0.5-0.5-1-0.7-1.6c0,0,0,0,0,0c0,0,0,0,0,0c1.2,0.6,2.2,1.5,2.2,1.5
			C90.3,65.2,90.5,65.2,90.7,65.1L90.7,65.1z M88.2,59.9L88.2,59.9c0.2-0.1,0.3-0.3,0.2-0.5c-0.3-1.8,0-3.2,0.4-4c0,0,0,0,0,0
			c0,0,0,0,0,0c0.6,1,1,2,1.3,3c0.3,1,0.3,1.9,0.2,2.8c-0.1,1.1-0.5,1.8-0.6,2.1c0,0,0,0,0,0c0,0,0,0,0,0c-1.5-0.5-2.8-1.6-3.8-3.1
			c-0.3-0.5-0.6-1-0.8-1.6c0,0,0,0,0,0c0,0,0,0,0,0c1.3,0.4,2.4,1.3,2.4,1.3C87.7,60,88,60,88.2,59.9z M84.4,55
			c0.2,0.1,0.4,0.1,0.6,0c0.2-0.1,0.2-0.4,0.2-0.6c-0.5-1.6-0.4-3-0.3-4c0,0,0,0,0,0c0,0,0,0,0,0c0.7,0.9,1.3,1.8,1.7,2.7
			c0.4,0.9,0.7,1.9,0.7,2.8c0.1,1-0.1,1.8-0.2,2.2c0,0,0,0,0,0c0,0,0,0,0,0c-1.5-0.3-2.9-1.1-4.1-2.4c-0.4-0.4-0.8-0.9-1.2-1.5
			c0,0,0,0,0,0c0,0,0,0,0,0C83.2,54.3,84.4,55,84.4,55z M80.6,50.7c0.2,0.1,0.4,0,0.6-0.1c0.1-0.2,0.2-0.4,0.1-0.6
			c-0.8-1.6-1-3-0.9-3.9c0,0,0,0,0,0c0,0,0,0,0,0c0.9,0.8,1.6,1.6,2.1,2.4c0.5,0.9,0.9,1.7,1.1,2.6c0.2,1.1,0.2,1.9,0.1,2.2
			c0,0,0,0,0,0c0,0-0.1,0-0.1,0c-1.7,0-3.2-0.9-4.2-1.7c-0.5-0.4-1-0.8-1.5-1.3c0,0,0,0,0,0c0,0,0,0,0,0c0.1,0,0.1,0,0.2,0
			C79.4,50.3,80.6,50.7,80.6,50.7z M79.1,46.8c0.4,1,0.4,2,0.4,2.5c0,0,0,0,0,0c-0.1,0-0.2,0-0.3,0c-2.1,0-4.5-1.4-5.8-2.2
			c0,0,0,0,0,0c0,0,0,0,0,0c1.3-0.3,2.6,0,2.6,0c0.2,0,0.4,0,0.5-0.2c0.1-0.2,0.1-0.4,0-0.6c-0.8-1-1.3-2.2-1.6-3c0,0,0,0,0,0
			c0,0,0,0,0,0C77,43.8,78.4,45,79.1,46.8z M40.3,41c0.4-0.2,0.8-0.4,1.3-0.6c1.2-0.4,2.4-0.7,3-0.8c1.3-0.3,2.3-0.9,2.3-0.9
			c0.1,0,0.1-0.1,0.1-0.2c0-0.1-0.1-0.1-0.2-0.2l-7-1l7-1c0.1,0,0.2-0.1,0.2-0.2c0-0.1-0.1-0.2-0.2-0.2c0,0-1.3-0.2-2.7-0.8
			c-0.4-0.2-0.7-0.4-1.1-0.5c-0.8-0.4-1.5-0.8-2.7-1c0.4,0,0.9,0,1.4,0c1.3,0.1,2.5,0.3,3.1,0.4c1.3,0.2,2.4,0.1,2.5,0
			c0.1,0,0.1-0.1,0.2-0.2c0-0.1,0-0.2-0.1-0.2l-6-3.6l6.8,1.7c0.1,0,0.2,0,0.2-0.1c0-0.1,0-0.2-0.1-0.3c0,0-1.1-0.7-2.2-1.8
			c-0.3-0.3-0.5-0.6-0.8-0.9c-0.6-0.7-1.1-1.3-2.1-2c0.4,0.1,0.8,0.3,1.3,0.5c1.2,0.6,2.2,1.2,2.7,1.5c1.1,0.7,2.2,1,2.3,1
			c0.1,0,0.2,0,0.2-0.1c0-0.1,0-0.2,0-0.2l-4.2-5.6l5.7,4.2c0.1,0.1,0.2,0.1,0.3,0c0.1-0.1,0.1-0.2,0-0.3c0,0-0.8-1.1-1.3-2.5
			c-0.2-0.4-0.3-0.8-0.4-1.1c-0.3-0.9-0.5-1.6-1.2-2.7c0.3,0.3,0.7,0.6,1,1c0.9,1,1.6,1.9,1.9,2.4c0.8,1.1,1.7,1.7,1.7,1.8
			c0.1,0.1,0.2,0.1,0.2,0c0.1,0,0.1-0.1,0.1-0.2l-1.7-6.8l3.6,6c0.1,0.1,0.2,0.1,0.3,0.1c0.1,0,0.1-0.1,0.1-0.2c0,0-0.3-1.3-0.3-2.8
			c0-0.4,0.1-0.8,0.1-1.2c0.1-0.9,0.2-1.7-0.1-2.9c0.2,0.4,0.4,0.8,0.6,1.3c0.4,1.2,0.7,2.4,0.8,3c0.3,1.3,0.9,2.3,0.9,2.3
			c0,0.1,0.1,0.1,0.2,0.1c0.1,0,0.1-0.1,0.2-0.2l1-6.9l1,6.9c0,0.1,0.1,0.2,0.2,0.2h0c0.1,0,0.2-0.1,0.2-0.2c0,0,0.2-1.3,0.8-2.7
			c0.2-0.4,0.4-0.7,0.5-1.1c0.4-0.8,0.8-1.5,1-2.7c0,0.4,0.1,0.9,0,1.4c-0.1,1.3-0.3,2.5-0.4,3.1c-0.2,1.3-0.1,2.4,0,2.5
			c0,0.1,0.1,0.2,0.2,0.2c0.1,0,0.2,0,0.2-0.1l3.6-6l-1.7,6.8c0,0.1,0,0.2,0.1,0.2c0.1,0,0.2,0,0.3-0.1c0,0,0.7-1.1,1.8-2.2
			c0.3-0.3,0.6-0.5,0.9-0.8c0.7-0.6,1.3-1.1,2-2.1c-0.1,0.4-0.3,0.8-0.5,1.3c-0.6,1.2-1.2,2.2-1.5,2.7c-0.7,1.1-1,2.2-1,2.3
			c0,0.1,0,0.2,0.1,0.2c0.1,0,0.2,0,0.2,0l5.6-4.2l-4.2,5.6c-0.1,0.1-0.1,0.2,0,0.3c0.1,0.1,0.2,0.1,0.3,0c0,0,1.1-0.8,2.5-1.3
			c0.4-0.1,0.8-0.3,1.1-0.4c0.9-0.3,1.6-0.5,2.7-1.2c-0.3,0.3-0.6,0.7-1,1c-1,0.9-1.9,1.6-2.4,1.9c-1.1,0.8-1.7,1.7-1.8,1.7
			c0,0.1,0,0.2,0,0.2c0,0.1,0.1,0.1,0.2,0.1l6.8-1.7l-6,3.6c-0.1,0-0.1,0.2-0.1,0.2c0,0.1,0.1,0.1,0.2,0.1c0,0,1.3-0.3,2.8-0.3
			c0.4,0,0.8,0.1,1.2,0.1c0.9,0.1,1.7,0.2,2.9-0.1c-0.4,0.2-0.8,0.4-1.3,0.6c-1.2,0.4-2.4,0.7-3,0.8c-1.3,0.3-2.3,0.9-2.3,0.9
			c-0.1,0-0.1,0.1-0.1,0.2c0,0.1,0.1,0.1,0.2,0.2l6.9,1l-7,1c-0.1,0-0.2,0.1-0.2,0.2c0,0.1,0.1,0.2,0.2,0.2c0,0,1.3,0.2,2.7,0.8
			c0.4,0.2,0.7,0.4,1.1,0.5c0.8,0.4,1.5,0.8,2.7,1c-0.4,0-0.9,0-1.4,0c-1.3-0.1-2.5-0.3-3.1-0.4c-0.1,0-0.1,0-0.2,0
			C72,40.2,70.8,40,69.8,40c0,0,0-0.1,0-0.1c0-0.2-0.2-0.3-0.3-0.4c-1.3-0.5-2.5-0.7-3.7-0.8c-0.1,0-0.1,0-0.2,0c0,0-0.1,0-0.1,0
			c-0.1,0-0.1,0-0.2,0c0,0-0.1,0-0.1,0c-0.1,0-0.2,0-0.3,0c-0.6,0-1.1,0-1.6,0.1v0c0-0.1,0-0.2,0-0.2c0,0,0,0,0,0
			c-0.1-0.2-0.2-0.3-0.4-0.3c-0.1,0-0.2,0-0.3,0c0,0-0.1,0-0.1,0c-0.1,0-0.1,0-0.2,0c0,0-0.1,0-0.1,0c-0.1,0-0.1,0-0.2,0
			c-1.3-0.1-2.5,0-3.6,0.2c-0.3,0.1-0.6,0.1-0.9,0.2c0,0,0,0-0.1,0c0,0-0.1,0-0.1,0c0,0,0,0-0.1,0c-0.1,0-0.1,0-0.2,0.1l0,0
			c-0.1,0-0.3,0.1-0.4,0.2c0,0,0,0,0,0c0,0,0,0,0,0c0,0,0,0,0,0v0c0,0,0,0,0,0c0-0.2,0-0.3-0.1-0.5l0,0c0,0,0,0,0,0c0,0,0,0,0,0
			c-0.1-0.1-0.2-0.1-0.4-0.1c-1.7,0.1-3.2,0.5-4.4,1c-0.4,0.2-0.8,0.4-1.2,0.6c0-0.1,0-0.1,0-0.1v0l0,0v0c0-0.2-0.1-0.3-0.2-0.5l0,0
			c0,0,0,0,0,0c0,0,0,0,0,0c0,0,0,0,0,0c0,0,0,0,0,0c-0.1-0.1-0.2-0.1-0.4,0c-1.7,0.5-3.1,1.1-4.2,1.9c0,0-0.1,0.1-0.1,0.1
			c-0.3,0-0.6,0-1,0c-0.3,0-1.1-0.1-1.2-0.1C42.4,40.8,41.6,40.7,40.3,41z M43,42.4C43,42.4,43,42.4,43,42.4
			C43.1,42.4,43.1,42.4,43,42.4c0,0.9-0.3,2.4-1.3,3.9c-0.1,0.2-0.1,0.4,0,0.6c0.1,0.2,0.3,0.3,0.5,0.2c0,0,1.3-0.3,2.6-0.2
			c0,0,0,0,0,0c0,0,0,0,0,0c-1.1,0.9-3.3,2.4-5.7,2.4c-0.1,0-0.2,0-0.3,0c0,0,0,0,0,0C38.8,48.1,39.1,45.2,43,42.4z M34.8,51.1
			c0.2-0.9,0.6-1.8,1.1-2.6c0.6-0.8,1.3-1.7,2.2-2.4c0,0,0,0,0,0c0,0,0,0,0,0c0,0.9-0.1,2.3-0.9,4c-0.1,0.2-0.1,0.4,0.1,0.6
			c0.1,0.2,0.3,0.2,0.5,0.1c0,0,1.2-0.4,2.5-0.5c0,0,0,0,0,0c0,0,0,0,0,0c-0.5,0.5-1,0.9-1.5,1.3c-1,0.8-2.5,1.7-4,1.7
			c-0.1,0-0.1,0-0.2,0c0,0,0,0,0,0C34.6,53,34.5,52.2,34.8,51.1z M33.4,50.4C33.5,50.4,33.5,50.4,33.4,50.4
			C33.5,50.4,33.5,50.4,33.4,50.4c0.2,0.9,0.3,2.4-0.2,4.1c-0.1,0.2,0,0.4,0.2,0.6c0.2,0.1,0.4,0.1,0.6,0c0,0,1.1-0.8,2.5-0.9
			c0,0,0,0,0,0c0,0,0,0,0,0c-0.9,1.3-2.8,3.5-5.3,3.9c0,0,0,0,0,0c0,0,0,0,0,0C30.9,57,30.4,54.1,33.4,50.4z M28.2,58.3
			c0.3-1,0.8-1.9,1.4-2.9c0,0,0,0,0,0c0,0,0,0,0,0c0.3,0.9,0.6,2.3,0.2,4.1c0,0.2,0.1,0.4,0.3,0.5c0.2,0.1,0.4,0.1,0.6-0.1
			c0,0,1-1,2.5-1.2c0,0,0,0,0,0c0,0,0,0,0,0c-0.2,0.4-0.5,1-1,1.6c-1.1,1.5-2.4,2.5-3.8,2.9c0,0,0,0,0,0c0,0,0,0,0,0
			c-0.1-0.3-0.4-1.1-0.5-2.1C27.7,60.2,27.9,59.3,28.2,58.3z M25.3,63.8c0.1-1,0.5-2,0.9-3.1c0,0,0,0,0,0l0,0c0,0,0,0,0,0
			c0.4,0.8,0.9,2.2,0.8,4c0,0.2,0.1,0.4,0.3,0.5c0.2,0.1,0.4,0.1,0.6-0.1c0,0,1.1-1,2.4-1.5c0,0,0,0,0,0c0,0,0,0,0,0
			c-0.1,0.5-0.3,1-0.5,1.5c-0.8,1.6-2,2.8-3.6,3.6c0,0,0,0,0,0c0,0,0,0,0,0c-0.2-0.3-0.6-1-0.8-2C25.2,65.7,25.2,64.8,25.3,63.8z
			 M23.2,69.5c0-1,0.2-2.1,0.5-3.2c0,0,0,0,0,0c0,0,0,0,0,0c0.5,0.8,1.2,2.1,1.3,3.9c0,0.2,0.2,0.4,0.4,0.4c0.2,0.1,0.4,0,0.5-0.2
			c0,0,0.9-1.1,2.2-1.8c0,0,0,0,0,0c0,0,0,0,0,0c-0.1,0.5-0.2,1.1-0.3,1.6c-0.6,1.7-1.6,3-3.1,4c0,0,0,0,0,0c0,0,0,0,0,0
			c-0.2-0.2-0.7-0.9-1.1-1.9C23.4,71.5,23.2,70.5,23.2,69.5z M22,72.3C22,72.2,22,72.2,22,72.3C22.1,72.2,22.1,72.2,22,72.3
			c0.7,0.7,1.5,1.9,1.8,3.6c0,0.2,0.2,0.4,0.4,0.4c0.2,0,0.4,0,0.5-0.2c0,0,0.8-1.2,1.9-2c0,0,0,0,0,0c0,0,0,0,0,0
			c0,0.5-0.1,1.1-0.2,1.6c-0.4,1.7-1.2,3.2-2.5,4.3c0,0,0,0,0,0c0,0,0,0,0,0c-0.3-0.3-0.8-0.8-1.3-1.8c-0.4-0.8-0.7-1.7-0.8-2.7
			C21.8,74.5,21.8,73.4,22,72.3z M21.1,78.2C21.1,78.2,21.2,78.2,21.1,78.2C21.2,78.2,21.2,78.2,21.1,78.2c0.7,0.7,1.6,1.8,2,3.6
			c0.1,0.2,0.2,0.4,0.4,0.4c0.2,0,0.4-0.1,0.5-0.3c0,0,0.6-1.2,1.6-2.1c0,0,0,0,0,0c0,0,0,0,0,0c0,0.6-0.1,1.2-0.1,1.8
			c-0.3,1.8-1,3.2-2.1,4.3c0,0,0,0,0,0c0,0,0,0,0,0c-0.2-0.2-0.9-0.8-1.4-1.7c-0.4-0.8-0.7-1.7-0.9-2.7C21,80.5,21,79.4,21.1,78.2z
			 M20.6,84.4C20.6,84.4,20.7,84.4,20.6,84.4C20.7,84.4,20.7,84.4,20.6,84.4c0.2,0.1,0.3,0.2,0.4,0.4c0.6,0.6,1.3,1.6,1.8,3.1
			c0.1,0.2,0.3,0.4,0.5,0.3c0.2,0,0.4-0.2,0.5-0.4l0,0c0,0,0.2-1.3,1.3-2.2c0,0,0,0,0,0c0,0,0,0,0,0c0.1,0.7,0.2,1.8,0,3
			c-0.2,1.4-0.8,2.5-1.7,3.4c0,0,0,0,0,0c0,0,0,0,0,0C22.5,91.3,20.4,89.2,20.6,84.4z M20.4,90.5C20.4,90.5,20.4,90.5,20.4,90.5
			c0.2,0.1,0.3,0.2,0.5,0.3c0.6,0.5,1.5,1.5,2.1,2.9c0.1,0.2,0.3,0.3,0.5,0.3c0,0,0,0,0,0l0,0c0.2,0,0.4-0.1,0.5-0.3
			c0,0,0.6-1.3,1.4-2.4c0,0,0,0,0,0c0,0,0,0,0,0c0.3,1.3,0.5,3.8-1.4,6.4c0,0,0,0,0,0c0,0,0,0,0,0C22.9,97.1,20.6,95.3,20.4,90.5
			C20.4,90.5,20.4,90.5,20.4,90.5z M20.7,96.8C20.7,96.8,20.7,96.8,20.7,96.8C20.7,96.8,20.8,96.8,20.7,96.8
			c0.9,0.4,2.1,1.2,3.1,2.7c0.1,0.2,0.3,0.2,0.5,0.2c0.2,0,0.4-0.2,0.4-0.4l0,0l0,0l0,0c0-0.1,0.3-1.5,1-2.6c0,0,0,0,0,0
			c0,0,0,0,0,0c0.2,0.5,0.4,1.1,0.5,1.6c0.4,1.7,0.1,3.4-0.8,5c0,0,0,0,0,0c0,0,0,0,0,0c-0.3-0.1-1.1-0.4-1.9-1.2
			c-0.7-0.6-1.3-1.4-1.8-2.3C21.3,99,21,98,20.7,96.8z M22.1,102.7C22.1,102.7,22.1,102.6,22.1,102.7
			C22.2,102.6,22.2,102.6,22.1,102.7c0.2,0,0.4,0.1,0.5,0.2c0.7,0.4,1.8,1.1,2.8,2.3c0.1,0.2,0.3,0.2,0.5,0.2c0.2,0,0.3-0.2,0.4-0.4
			c0,0,0.2-1.4,0.8-2.6c0,0,0,0,0,0l0,0c0,0,0,0,0,0c0.6,1.3,1.4,3.9,0.2,6.5c0,0,0,0,0,0c0,0,0,0,0,0
			C26.3,108.4,23.5,107.2,22.1,102.7z M25.7,111.3c-0.6-0.8-1.2-1.7-1.7-2.8c0,0,0,0,0,0c0,0,0,0,0,0c0.2,0,0.3,0.1,0.5,0.2
			c0.8,0.3,1.9,0.8,3,1.9c0.1,0.1,0.4,0.2,0.5,0.1c0.2-0.1,0.3-0.3,0.3-0.5c0,0,0-1.4,0.5-2.6c0,0,0,0,0,0c0,0,0,0,0,0
			c0.3,0.5,0.5,1,0.7,1.6c0.6,1.7,0.7,3.3,0.3,4.8c0,0,0,0,0,0c0,0,0,0,0,0c-0.3-0.1-1.1-0.2-2.1-0.8
			C27,112.8,26.3,112.1,25.7,111.3z M26.5,114.1C26.5,114.1,26.5,114.1,26.5,114.1C26.5,114.1,26.6,114.1,26.5,114.1
			c1,0.1,2.3,0.5,3.8,1.7c0.2,0.1,0.4,0.1,0.6,0c0.2-0.1,0.3-0.3,0.3-0.5c0-0.1-0.1-1.3,0.1-2.6c0,0,0,0,0,0c0,0,0,0,0,0
			c0.3,0.5,0.6,1,0.9,1.5c0.6,1.1,1.2,2.9,0.9,4.6c0,0,0,0,0,0c0,0,0,0,0,0c-0.4,0-1.2-0.1-2.1-0.5c-0.8-0.4-1.6-0.9-2.4-1.6
			C27.8,116,27.1,115.1,26.5,114.1z M38.2,124.2c0,0-0.5-1.2-0.6-2.6c0,0,0,0,0,0c0,0,0,0,0,0c1.2,1,3.1,3,3,5.8c0,0,0,0,0,0
			c-0.1,0-0.4,0.1-0.8,0.1c-0.3,0-0.7,0-1.2-0.1c-1.7-0.3-3.4-1.3-5.2-3c0,0,0,0,0,0c0,0,0,0,0,0c0.9-0.1,2.4-0.1,4.1,0.5
			c0.2,0.1,0.4,0,0.5-0.1C38.2,124.6,38.2,124.4,38.2,124.2z M33.6,120.6c0.2,0.1,0.4,0.1,0.6,0c0.2-0.1,0.2-0.3,0.2-0.5
			c0,0-0.3-1.3-0.2-2.6c0,0,0,0,0,0c0,0,0,0,0,0c1,1.2,2.6,3.5,2.4,5.9c0,0,0,0,0,0c-0.1,0-0.1,0-0.2,0c-0.4,0-1.1-0.1-1.9-0.3
			c-0.9-0.3-1.7-0.7-2.5-1.4c-0.8-0.6-1.5-1.4-2.2-2.4c0,0,0,0,0,0c0,0,0,0,0,0C30.6,119.4,32.1,119.6,33.6,120.6z M48.1,108.4
			c-0.1,0-0.3,0-0.4,0c-0.5-0.1-0.9-0.3-1-0.4c0-0.1-0.2-0.4,0.2-0.8c0.5-0.7,1.7-1.2,2.4-1.1c0,0,0,0,0.1,0c0.1,0,0.3,0,0.5,0.1
			c-0.2,0.2-0.4,0.3-0.5,0.5C48.8,107,48.3,107.6,48.1,108.4z M50.9,110.2c-0.2,0-0.3-0.1-0.5-0.1c-0.9-0.3-0.9-0.7-0.9-0.9
			c0-0.5,0.2-0.9,0.9-1.5c1-1,1.8-1.3,2.5-0.9c0.2,0.1,0.5,0.3,0.5,0.5c0,0.1,0,0.2,0,0.2c-0.2,0.1-0.3,0.2-0.5,0.3
			C51.8,108.5,51.2,109.3,50.9,110.2z M54.4,111.6c-0.5,0.1-1.3,0.1-1.8-0.2c-0.1-0.1-0.3-0.2-0.3-0.5c-0.1-0.7,0.9-1.5,1.4-1.9
			c1.3-0.9,2-1.2,2.7-0.7c0.2,0.2,0.3,0.3,0.3,0.5c0,0.3-0.3,0.6-0.6,0.8C55.6,110,54.8,110.7,54.4,111.6z M59.6,110.7
			c0,0.4-0.5,0.8-0.8,1c0,0,0,0,0,0c0,0,0,0-0.1,0c0,0,0,0,0,0c-0.3,0.3-1.5,1-2.3,0.8c-0.2,0-0.4-0.1-0.6-0.4
			c0.4-0.8,1.2-1.3,2-1.8c1-0.6,1.4-0.2,1.5-0.2C59.6,110.5,59.6,110.7,59.6,110.7z M71.4,107.2c-0.3,0.3-0.7,0.4-1.2,0.4
			c-0.6-0.9-2.5-3.2-4.9-4.3c-0.4-0.2-0.8,0-1,0.4c-0.2,0.4,0,0.8,0.3,1c2,1,3.7,3.1,4.3,3.9c-0.1,0.1-0.2,0.3-0.3,0.5
			c-0.3,0.4-0.8,0.6-1.5,0.6c-0.2-0.4-0.5-0.9-1.1-1.6c-0.7-0.8-2.1-1.8-2.2-1.9c-0.3-0.2-0.8-0.2-1.1,0.2c-0.2,0.3-0.2,0.8,0.2,1.1
			c0.4,0.3,1.5,1.1,1.9,1.6c0.6,0.7,0.8,1.1,0.9,1.3c-0.1,0.2-0.2,0.4-0.4,0.6c-0.3,0.3-0.7,0.4-1.2,0.4c-0.2-0.5-0.7-1.4-1.5-2.3
			c-0.3-0.3-0.8-0.3-1.1-0.1c-0.3,0.3-0.3,0.8-0.1,1.1c0.6,0.7,1,1.4,1.2,1.8c-0.1,0.1-0.3,0.2-0.5,0.3c-0.5,0.2-1,0.2-1.5,0.2
			c0.2-0.3,0.4-0.7,0.4-1.1c0-0.4,0-1.1-0.7-1.8c-0.3-0.3-1-0.7-2-0.5c0-0.4-0.2-0.9-0.8-1.4c-0.7-0.6-1.6-0.8-2.6-0.5
			c0,0-0.1,0-0.1,0c-0.1-0.4-0.5-0.9-1.3-1.3c-0.7-0.4-1.5-0.4-2.2-0.1c-0.7-0.6-1.6-0.7-1.8-0.7c-1.1-0.2-2.5,0.4-3.5,1.3
			c-4.9,2.6-11.1,5.4-13.6,6.5c-1.3-2.5-2.5-5.2-3.4-8.1c-0.3-0.8-0.5-1.6-0.7-2.4c7.1-0.8,12.8-1.6,17-2.5c4.3-0.9,7.1-1.7,8.5-2.7
			c0,0,0,0,0,0c1.7-1.2,2.8-1.8,4.4-1.6c0.5,0,1,0.1,1.4,0.2c-0.4,0.1-0.8,0.3-1.2,0.6c-0.7,0.5-1.1,0.8-1.4,1.1
			c-0.4,0.3-0.7,0.5-1.1,0.8c-0.3,0.2-0.8,0.4-1.2,0.6c-1,0.5-1.7,0.8-2,1.5c0,0,0,0,0,0c-0.3,0.7-0.2,1.3,0.3,2
			c0.7,1,1.9,1,2.9,0.9c1.1-0.1,2.4-0.5,3.4-1c0.4-0.2,0.7-0.4,0.9-0.6c0.4-0.3,0.8-0.5,1.1-0.6c0,0,0,0,0,0c0.9-0.2,1.8-0.1,3,0.3
			c1,0.4,2,1,3,1.6c2.2,1.5,3.9,3.4,4.4,4C71.8,106.6,71.7,107,71.4,107.2z M74.4,106.6L74.4,106.6c-0.7-0.5-1.2-1-1.5-1.3l0,0
			c0,0,0,0,0,0c-0.1-0.1-0.1-0.1-0.1-0.2c-0.8-0.9-2.3-2.6-4.4-4c-1.5-1-4.4-2.9-7.2-2.1c-0.5,0.1-1,0.4-1.6,0.8
			c-0.3,0.2-0.5,0.4-0.9,0.5c-0.9,0.5-2,0.8-2.7,0.8c-0.8,0-1.3,0-1.6-0.3c-0.2-0.3-0.2-0.4-0.1-0.5c0.2-0.2,0.8-0.5,1.2-0.7
			c0.5-0.2,0.9-0.5,1.3-0.7c0.5-0.3,0.9-0.6,1.2-0.9c0.3-0.3,0.7-0.6,1.3-1c0.9-0.6,1.8-0.6,3.2-0.6c0.2,0,0.4,0,0.7,0h0
			c0.2,0,0.3,0,0.5,0c1.5-0.1,2.9,0.4,4.9,1.2c0.6,0.2,1.3,0.5,2,0.7c0,0,0,0,0,0c0,0,2.8,0.9,6.6,1.8c3.3,0.8,8.1,1.8,12.6,2
			c-0.2,0.8-0.4,1.5-0.7,2.2c-0.9,3-2.1,5.7-3.5,8.3C83.3,111.6,77.9,109.2,74.4,106.6z M84.9,124.4c-2.2,2-4,2.7-5.2,3
			c-0.5,0.1-0.9,0.1-1.2,0.1c-0.3,0-0.6,0-0.8-0.1c0,0,0,0,0,0c-0.1-1.5,0.5-3.1,1.8-4.5c0.4-0.4,0.8-0.9,1.3-1.3c0,0,0,0,0,0
			c0,0,0,0,0,0c-0.1,1.3-0.6,2.5-0.6,2.5c-0.1,0.2,0,0.4,0.1,0.6c0.1,0.1,0.4,0.2,0.5,0.1C82.4,124.2,83.9,124.2,84.9,124.4
			C84.9,124.4,84.9,124.4,84.9,124.4C84.9,124.4,84.9,124.4,84.9,124.4z M88.7,119.4c-0.7,0.9-1.4,1.7-2.2,2.4
			c-0.8,0.6-1.7,1.1-2.5,1.4c-0.8,0.3-1.5,0.3-1.9,0.3c-0.1,0-0.2,0-0.2,0c0,0,0,0,0,0c-0.1-1.5,0.3-3,1.3-4.6
			c0.3-0.5,0.7-0.9,1-1.4c0,0,0,0,0,0c0,0,0,0,0,0c0.1,1.3-0.1,2.6-0.1,2.6c0,0.2,0,0.4,0.2,0.5c0.2,0.1,0.4,0.1,0.6,0
			C86.3,119.6,87.7,119.4,88.7,119.4C88.7,119.3,88.7,119.3,88.7,119.4C88.7,119.3,88.7,119.3,88.7,119.4z M91.8,114.1
			c-0.6,1-1.3,1.9-2,2.6c-0.7,0.7-1.5,1.3-2.4,1.6c-1,0.4-1.8,0.5-2.1,0.5h0c0,0,0,0,0,0c-0.3-1.5,0-3,0.8-4.7
			c0.3-0.5,0.6-1,0.9-1.5c0,0,0,0,0,0c0,0,0,0,0,0c0.3,1.3,0.1,2.6,0.1,2.6c0,0.2,0.1,0.4,0.3,0.5c0.2,0.1,0.4,0.1,0.6,0
			C89.5,114.6,90.8,114.2,91.8,114.1C91.8,114.1,91.8,114.1,91.8,114.1C91.8,114.1,91.8,114.1,91.8,114.1z M94.3,108.4
			c-0.5,1.1-1,2.1-1.7,2.9c-0.6,0.8-1.4,1.4-2.2,1.9c-0.9,0.5-1.7,0.7-2.1,0.8h0c0,0,0,0,0,0c-0.4-1.5-0.3-3.1,0.3-4.8
			c0.2-0.5,0.4-1,0.7-1.5c0,0,0,0,0,0c0,0,0,0,0,0c0.4,1.3,0.5,2.6,0.5,2.6c0,0.2,0.1,0.4,0.3,0.5c0.2,0.1,0.4,0,0.5-0.1l0,0
			c1.1-1.2,2.2-1.8,3-2C93.9,108.4,94.1,108.4,94.3,108.4C94.3,108.3,94.3,108.3,94.3,108.4C94.3,108.4,94.3,108.4,94.3,108.4z
			 M96.1,102.6c-0.4,1.1-0.8,2.1-1.4,2.9c-0.6,0.9-1.2,1.6-2,2.1c-0.9,0.6-1.7,0.9-2,1c0,0,0,0,0,0c0,0,0,0,0,0
			c-0.7-1.7-0.5-3.6-0.2-4.8c0.1-0.6,0.3-1.1,0.5-1.7c0,0,0,0,0,0l0,0c0,0,0,0,0,0c0.5,1.2,0.7,2.6,0.7,2.7c0,0.2,0.2,0.4,0.4,0.4
			c0.2,0,0.4,0,0.5-0.2C94,103.7,95.2,102.9,96.1,102.6C96.1,102.6,96.1,102.6,96.1,102.6C96.1,102.6,96.1,102.6,96.1,102.6z
			 M96.3,99.7c-0.5,0.9-1,1.7-1.7,2.3c-0.8,0.7-1.5,1.1-1.8,1.2c0,0,0,0,0,0c0,0,0,0,0,0c-0.8-1.4-1.1-3-0.8-4.9
			c0.1-0.6,0.2-1.1,0.3-1.7c0,0,0,0,0,0c0,0,0,0,0,0c0.7,1.2,1.1,2.6,1.1,2.6c0,0.2,0.2,0.3,0.4,0.4c0.2,0,0.4-0.1,0.5-0.2
			c1-1.5,2.1-2.4,2.9-2.8c0,0,0,0,0,0c0,0,0,0,0,0C97.1,97.7,96.8,98.8,96.3,99.7z M97.2,93.6c-0.3,1-0.8,1.8-1.4,2.5
			c-0.7,0.8-1.4,1.3-1.7,1.4c0,0,0,0,0,0c0,0,0,0,0,0c-0.9-1.3-1.4-2.8-1.4-4.6c0-0.6,0.1-1.2,0.2-1.7c0,0,0,0,0,0c0,0,0,0,0,0
			c0.8,1,1.3,2.4,1.3,2.4c0.1,0.2,0.2,0.3,0.4,0.3c0.2,0,0.4-0.1,0.5-0.3c0.8-1.6,1.8-2.6,2.6-3.1c0,0,0,0,0,0c0,0,0,0,0,0
			C97.8,91.6,97.6,92.7,97.2,93.6z"/>
		<g id="XMLID_14_">
			<path id="XMLID_52_" class="st6" d="M84.8,124.4c-0.9-0.1-2.4-0.1-4.1,0.5c-0.2,0.1-0.4,0-0.5-0.1c-0.1-0.1-0.2-0.4-0.1-0.6
				c0,0,0.5-1.2,0.6-2.5c0,0,0,0,0,0c0,0,0,0,0,0c-0.5,0.4-0.9,0.8-1.3,1.3c-1.2,1.4-1.8,2.9-1.8,4.5c0,0,0,0,0,0
				c0.2,0,0.4,0.1,0.8,0.1c0.3,0,0.7,0,1.2-0.1C80.9,127.2,82.7,126.4,84.8,124.4C84.9,124.4,84.9,124.4,84.8,124.4
				C84.9,124.4,84.9,124.4,84.8,124.4z"/>
			<path id="XMLID_51_" class="st6" d="M37.6,121.7C37.6,121.6,37.6,121.6,37.6,121.7C37.6,121.7,37.6,121.7,37.6,121.7
				c0.1,1.4,0.6,2.6,0.6,2.6c0.1,0.2,0,0.4-0.1,0.6c-0.1,0.1-0.4,0.2-0.5,0.1c-1.7-0.7-3.1-0.7-4.1-0.5c0,0,0,0,0,0c0,0,0,0,0,0
				c1.7,1.6,3.5,2.6,5.2,3c0.5,0.1,0.9,0.1,1.2,0.1c0.4,0,0.6,0,0.8-0.1c0,0,0,0,0,0C40.7,124.7,38.8,122.6,37.6,121.7z"/>
			<path id="XMLID_50_" class="st6" d="M88.6,119.3c-0.9,0.1-2.4,0.3-3.9,1.3c-0.2,0.1-0.4,0.1-0.6,0c-0.2-0.1-0.3-0.3-0.2-0.5
				c0,0,0.3-1.3,0.1-2.6c0,0,0,0,0,0c0,0,0,0,0,0c-0.4,0.4-0.7,0.9-1,1.4c-1,1.5-1.4,3.1-1.3,4.6c0,0,0,0,0,0c0.1,0,0.1,0,0.2,0
				c0.4,0,1.1-0.1,1.9-0.3c0.9-0.3,1.7-0.7,2.5-1.4C87.2,121.1,88,120.3,88.6,119.3C88.7,119.3,88.7,119.3,88.6,119.3
				C88.7,119.3,88.7,119.3,88.6,119.3z"/>
			<path id="XMLID_49_" class="st6" d="M91.8,114.1c-0.9,0.2-2.3,0.6-3.7,1.7c-0.2,0.1-0.4,0.1-0.6,0c-0.2-0.1-0.3-0.3-0.3-0.5
				c0,0,0.1-1.4-0.1-2.6c0,0,0,0,0,0c0,0,0,0,0,0c-0.3,0.5-0.6,1-0.9,1.5c-0.8,1.6-1.1,3.2-0.8,4.7c0,0,0,0,0,0h0
				c0.3,0,1.2-0.1,2.1-0.5c0.8-0.4,1.6-0.9,2.4-1.6C90.6,116,91.2,115.1,91.8,114.1C91.8,114.1,91.8,114.1,91.8,114.1
				C91.8,114.1,91.8,114.1,91.8,114.1z"/>
			<path id="XMLID_48_" class="st6" d="M94.3,108.3c-0.2,0-0.4,0.1-0.5,0.2c-0.7,0.3-1.9,0.8-3,2l0,0c-0.1,0.1-0.4,0.2-0.5,0.1
				c-0.2-0.1-0.3-0.2-0.3-0.5c0,0-0.1-1.4-0.5-2.6c0,0,0,0,0,0c0,0,0,0,0,0c-0.3,0.5-0.5,1-0.7,1.5c-0.6,1.7-0.7,3.3-0.3,4.8
				c0,0,0,0,0,0h0c0.4-0.1,1.2-0.3,2.1-0.8c0.8-0.5,1.5-1.1,2.2-1.9C93.3,110.5,93.9,109.5,94.3,108.3
				C94.3,108.4,94.3,108.4,94.3,108.3C94.3,108.3,94.3,108.3,94.3,108.3z"/>
			<path id="XMLID_47_" class="st6" d="M96.1,102.6c-0.9,0.4-2.1,1.1-3.3,2.5c-0.1,0.2-0.3,0.2-0.5,0.2c-0.2-0.1-0.3-0.2-0.4-0.4
				c0-0.1-0.2-1.5-0.7-2.7c0,0,0,0,0,0l0,0c0,0,0,0,0,0c-0.2,0.6-0.4,1.1-0.5,1.7c-0.3,1.2-0.5,3.1,0.2,4.8c0,0,0,0,0,0c0,0,0,0,0,0
				c0.3-0.1,1.1-0.3,2-1c0.7-0.5,1.4-1.2,2-2.1C95.3,104.7,95.8,103.8,96.1,102.6C96.1,102.6,96.1,102.6,96.1,102.6
				C96.1,102.6,96.1,102.6,96.1,102.6z"/>
			<path id="XMLID_46_" class="st6" d="M97.3,96.5c-0.8,0.5-2,1.3-2.9,2.8c-0.1,0.2-0.3,0.3-0.5,0.2c-0.2,0-0.4-0.2-0.4-0.4
				c0,0-0.4-1.5-1.1-2.6c0,0,0,0,0,0c0,0,0,0,0,0c-0.2,0.6-0.3,1.1-0.3,1.7c-0.2,1.9,0.1,3.5,0.8,4.9c0,0,0,0,0,0c0,0,0,0,0,0
				c0.4-0.1,1.1-0.5,1.8-1.2c0.7-0.6,1.2-1.4,1.7-2.3C96.8,98.8,97.1,97.7,97.3,96.5C97.3,96.6,97.3,96.5,97.3,96.5
				C97.3,96.5,97.3,96.5,97.3,96.5z"/>
			<path id="XMLID_45_" class="st6" d="M95.2,93.6c-0.1,0.2-0.3,0.3-0.5,0.3c-0.2,0-0.4-0.1-0.4-0.3c0,0-0.5-1.4-1.3-2.4
				c0,0,0,0,0,0c0,0,0,0,0,0c-0.1,0.6-0.2,1.2-0.2,1.7c0,1.8,0.4,3.4,1.4,4.6c0,0,0,0,0,0c0,0,0,0,0,0c0.3-0.2,1-0.6,1.7-1.4
				c0.6-0.7,1.1-1.5,1.4-2.5c0.3-0.9,0.6-2,0.6-3.2c0,0,0,0,0,0c0,0,0,0,0,0C97.1,91,96,91.9,95.2,93.6z"/>
			<path id="XMLID_44_" class="st6" d="M95,88.1c-0.2,0-0.4-0.1-0.5-0.3c0,0-0.6-1.2-1.5-2.2c0,0,0,0,0,0c0,0,0,0,0,0
				c-0.1,1.5,0.1,4.3,1.8,6.1c0,0,0,0,0,0c0,0,0,0,0,0c0.3-0.2,0.9-0.7,1.5-1.5c0.5-0.8,0.9-1.6,1.2-2.6c0.2-1,0.4-2.1,0.3-3.2
				c0,0,0,0,0,0c0,0,0,0,0,0C97,85,96.1,86,95.4,87.7C95.4,87.9,95.2,88,95,88.1z"/>
			<path id="XMLID_43_" class="st6" d="M94.7,82.1c-0.2,0-0.4-0.1-0.5-0.2c0,0-0.7-1.1-1.6-2c0,0,0,0,0,0c0,0,0,0,0,0
				c0.1,1.6,0.6,4.6,2.3,5.9c0,0,0,0,0,0c0,0,0,0,0,0c0.2-0.2,0.9-0.8,1.4-1.7c0.4-0.8,0.7-1.7,0.9-2.7c0.2-1,0.2-2.1,0-3.2
				c0,0,0,0,0,0c0,0,0,0,0,0c-0.6,0.7-1.5,1.8-1.9,3.6C95.1,82,94.9,82.1,94.7,82.1z"/>
			<path id="XMLID_42_" class="st6" d="M93.9,76.4c-0.2,0-0.4,0-0.5-0.2c0,0-0.8-1.1-1.8-1.9c0,0,0,0,0,0c0,0,0,0,0,0
				c0.1,0.6,0.2,1.2,0.3,1.7c0.3,1.2,1,2.9,2.3,4.1c0,0,0,0,0,0c0,0,0,0,0,0c0.2-0.2,0.8-0.8,1.3-1.8c0.4-0.8,0.7-1.7,0.8-2.7
				c0.1-1,0.1-2.1-0.1-3.2c0,0,0,0,0,0c0,0,0,0,0,0c-0.6,0.7-1.4,1.9-1.8,3.7C94.3,76.2,94.1,76.3,93.9,76.4z"/>
			<path id="XMLID_41_" class="st6" d="M92.6,70.7c-0.2,0.1-0.4,0-0.5-0.1c0,0-0.9-1-2.1-1.7c0,0,0,0,0,0c0,0,0,0,0,0
				c0.1,0.6,0.3,1.1,0.5,1.6c0.7,1.7,1.7,3,2.9,3.8c0,0,0,0,0,0c0,0,0,0,0,0c0.2-0.2,0.7-0.9,1-1.9c0.3-0.9,0.4-1.8,0.4-2.8
				c0-1-0.2-2.1-0.6-3.2c0,0,0,0,0,0c0,0,0,0,0,0c-0.5,0.8-1.1,2.1-1.3,3.9C93,70.5,92.8,70.6,92.6,70.7z"/>
			<path id="XMLID_40_" class="st6" d="M90.1,65.1c0,0-1-0.9-2.2-1.5c0,0,0,0,0,0c0,0,0,0,0,0c0.2,0.5,0.4,1.1,0.7,1.6
				c0.8,1.6,2,2.8,3.3,3.5c0,0,0,0,0,0c0,0,0,0,0,0c0.2-0.3,0.6-1,0.8-2c0.2-0.9,0.2-1.8,0.1-2.9c-0.1-1-0.5-2-0.9-3.1c0,0,0,0,0,0
				c0,0,0,0,0,0c-0.4,0.8-0.9,2.2-0.8,4c0,0.2-0.1,0.4-0.3,0.5l0,0C90.5,65.2,90.3,65.2,90.1,65.1z"/>
			<path id="XMLID_39_" class="st6" d="M85.1,58.6C85.1,58.6,85.1,58.6,85.1,58.6c0.2,0.6,0.5,1.1,0.8,1.6c1,1.5,2.3,2.6,3.8,3.1
				c0,0,0,0,0,0c0,0,0,0,0,0c0.1-0.3,0.5-1,0.6-2.1c0.1-0.9,0-1.9-0.2-2.8c-0.3-1-0.7-2-1.3-3c0,0,0,0,0,0c0,0,0,0,0,0
				c-0.3,0.9-0.6,2.3-0.4,4c0,0.2-0.1,0.4-0.2,0.5h0c-0.2,0.1-0.4,0.1-0.6,0C87.6,59.8,86.4,59,85.1,58.6
				C85.1,58.6,85.1,58.6,85.1,58.6z"/>
			<path id="XMLID_38_" class="st6" d="M81.8,54.2C81.8,54.2,81.8,54.2,81.8,54.2c0.4,0.6,0.7,1,1.2,1.5c1.3,1.3,2.7,2.2,4.1,2.4
				c0,0,0,0,0,0c0,0,0,0,0,0c0.1-0.4,0.3-1.1,0.2-2.2c-0.1-0.9-0.3-1.8-0.7-2.8c-0.4-0.9-1-1.8-1.7-2.7c0,0,0,0,0,0c0,0,0,0,0,0
				c-0.2,1-0.2,2.4,0.3,4c0.1,0.2,0,0.4-0.2,0.6c-0.2,0.1-0.4,0.1-0.6,0C84.4,55,83.2,54.3,81.8,54.2C81.8,54.2,81.8,54.2,81.8,54.2
				z"/>
			<path id="XMLID_37_" class="st6" d="M81.1,50.6c-0.1,0.2-0.4,0.2-0.6,0.1c0,0-1.2-0.5-2.5-0.5c-0.1,0-0.1,0-0.2,0c0,0,0,0,0,0
				c0,0,0,0,0,0c0.5,0.5,1,0.9,1.5,1.3c1,0.8,2.6,1.7,4.2,1.7c0,0,0.1,0,0.1,0c0,0,0,0,0,0c0-0.3,0.1-1.2-0.1-2.2
				c-0.2-0.9-0.6-1.8-1.1-2.6c-0.5-0.8-1.3-1.6-2.1-2.4c0,0,0,0,0,0c0,0,0,0,0,0c0,0.9,0.1,2.4,0.9,4C81.3,50.2,81.3,50.4,81.1,50.6
				z"/>
			<path id="XMLID_36_" class="st6" d="M36.4,123.4c0.1,0,0.2,0,0.2,0c0,0,0,0,0,0c0.1-2.4-1.4-4.8-2.4-5.9c0,0,0,0,0,0c0,0,0,0,0,0
				c-0.1,1.3,0.2,2.6,0.2,2.6c0.1,0.2,0,0.4-0.2,0.5c-0.2,0.1-0.4,0.1-0.6,0c-1.5-1-3-1.2-3.9-1.3c0,0,0,0,0,0c0,0,0,0,0,0
				c0.7,0.9,1.4,1.7,2.2,2.4c0.8,0.6,1.7,1.1,2.5,1.4C35.3,123.4,35.9,123.4,36.4,123.4z"/>
			<path id="XMLID_35_" class="st6" d="M33,118.9L33,118.9C33,118.9,33.1,118.9,33,118.9c0.3-1.8-0.3-3.5-0.8-4.7
				c-0.3-0.5-0.6-1-0.9-1.5c0,0,0,0,0,0c0,0,0,0,0,0c-0.3,1.3-0.1,2.6-0.1,2.6c0,0.2-0.1,0.4-0.3,0.5c-0.2,0.1-0.4,0.1-0.6,0
				c-1.4-1.1-2.8-1.5-3.7-1.7c0,0,0,0,0,0c0,0,0,0,0,0c0.6,1,1.3,1.9,2,2.6c0.7,0.7,1.5,1.3,2.4,1.6C31.8,118.8,32.6,118.8,33,118.9
				z"/>
			<path id="XMLID_34_" class="st6" d="M29.9,114C29.9,114,29.9,114,29.9,114C29.9,114,29.9,114,29.9,114c0.5-1.5,0.4-3.1-0.2-4.8
				c-0.2-0.5-0.4-1.1-0.7-1.6c0,0,0,0,0,0c0,0,0,0,0,0c-0.4,1.3-0.5,2.6-0.5,2.6c0,0.2-0.1,0.4-0.3,0.5c-0.2,0.1-0.4,0-0.5-0.1
				c-1.1-1.1-2.2-1.7-3-1.9c-0.2-0.1-0.3-0.1-0.5-0.2c0,0,0,0,0,0c0,0,0,0,0,0c0.5,1.1,1,2,1.7,2.8c0.6,0.8,1.4,1.4,2.2,1.9
				C28.8,113.8,29.6,114,29.9,114z"/>
			<path id="XMLID_33_" class="st6" d="M27.4,108.8C27.4,108.8,27.4,108.8,27.4,108.8C27.4,108.8,27.4,108.8,27.4,108.8
				c1.2-2.6,0.4-5.2-0.2-6.5c0,0,0,0,0,0l0,0c0,0,0,0,0,0c-0.6,1.2-0.8,2.6-0.8,2.6c0,0.2-0.2,0.4-0.4,0.4c-0.2,0.1-0.4,0-0.5-0.2
				c-1-1.2-2-1.9-2.8-2.3c-0.2-0.1-0.3-0.2-0.5-0.2c0,0,0,0,0,0c0,0,0,0,0,0C23.5,107.2,26.3,108.4,27.4,108.8z"/>
			<path id="XMLID_32_" class="st6" d="M23.6,102.1c0.8,0.7,1.6,1.1,1.9,1.2c0,0,0,0,0,0c0,0,0,0,0,0c0.9-1.6,1.2-3.2,0.8-5
				c-0.1-0.5-0.3-1.1-0.5-1.6c0,0,0,0,0,0c0,0,0,0,0,0c-0.7,1.2-1,2.6-1,2.6l0,0l0,0l0,0l0,0l0,0l0,0c0,0.2-0.2,0.4-0.4,0.4
				c-0.2,0-0.4,0-0.5-0.2c-1-1.5-2.2-2.3-3-2.7c0,0,0,0,0,0c0,0,0,0,0,0c0.3,1.1,0.6,2.2,1.1,3.1C22.3,100.8,22.9,101.5,23.6,102.1z
				"/>
			<path id="XMLID_31_" class="st6" d="M23.9,97.7C23.9,97.7,23.9,97.7,23.9,97.7C23.9,97.7,24,97.7,23.9,97.7
				c1.9-2.6,1.8-5.1,1.5-6.4c0,0,0,0,0,0c0,0,0,0,0,0c-0.9,1.1-1.4,2.4-1.4,2.4c-0.1,0.2-0.3,0.3-0.5,0.3l0,0c0,0,0,0,0,0
				c-0.2,0-0.4-0.1-0.5-0.3c-0.6-1.4-1.5-2.3-2.1-2.9c-0.1-0.1-0.3-0.2-0.4-0.3c0,0,0,0,0,0c0,0,0,0,0,0
				C20.6,95.3,22.9,97.1,23.9,97.7z"/>
			<path id="XMLID_30_" class="st6" d="M23.4,92C23.4,92,23.4,92,23.4,92C23.5,92,23.5,92,23.4,92c1-0.9,1.5-2,1.8-3.4
				c0.2-1.2,0.1-2.2,0-3c0,0,0,0,0,0c0,0,0,0,0,0c-1.1,1-1.3,2.2-1.3,2.2l0,0c0,0.2-0.2,0.4-0.5,0.4c-0.2,0-0.4-0.1-0.5-0.3
				c-0.5-1.5-1.2-2.5-1.8-3.1c-0.1-0.1-0.3-0.3-0.4-0.4c0,0,0,0,0,0c0,0,0,0,0,0C20.4,89.2,22.5,91.3,23.4,92z"/>
			<path id="XMLID_29_" class="st6" d="M22,84.2c0.5,0.9,1.1,1.5,1.4,1.7c0,0,0,0,0,0c0,0,0,0,0,0c1.1-1,1.8-2.5,2.1-4.3
				c0.1-0.6,0.1-1.2,0.1-1.8c0,0,0,0,0,0c0,0,0,0,0,0c-1,0.9-1.6,2.1-1.6,2.1c-0.1,0.2-0.3,0.3-0.5,0.3c-0.2,0-0.4-0.2-0.4-0.4
				c-0.4-1.7-1.3-2.9-1.9-3.6c0,0,0,0,0,0c0,0,0,0,0,0c-0.1,1.2-0.1,2.2,0,3.2C21.3,82.4,21.6,83.4,22,84.2z"/>
			<path id="XMLID_28_" class="st6" d="M22.7,78.2c0.5,0.9,1,1.5,1.3,1.8c0,0,0,0,0,0c0,0,0,0,0,0c1.3-1.1,2.1-2.6,2.5-4.3
				c0.1-0.5,0.2-1,0.2-1.6c0,0,0,0,0,0c0,0,0,0,0,0c-1.1,0.8-1.8,1.9-1.9,2c-0.1,0.2-0.3,0.3-0.5,0.2c-0.2,0-0.4-0.2-0.4-0.4
				c-0.4-1.7-1.2-3-1.8-3.7c0,0,0,0,0,0c0,0,0,0,0,0c-0.2,1.2-0.3,2.2-0.1,3.2C22,76.5,22.3,77.4,22.7,78.2z"/>
			<path id="XMLID_27_" class="st6" d="M24.7,74.3C24.7,74.3,24.7,74.3,24.7,74.3C24.8,74.3,24.8,74.3,24.7,74.3
				c1.6-0.9,2.6-2.3,3.2-4c0.2-0.5,0.3-1.1,0.3-1.6c0,0,0,0,0,0c0,0,0,0,0,0C27,69.4,26,70.4,26,70.5c-0.1,0.2-0.3,0.2-0.5,0.2
				c-0.2-0.1-0.3-0.2-0.4-0.4c-0.1-1.8-0.8-3.1-1.3-3.9c0,0,0,0,0,0c0,0,0,0,0,0c-0.3,1.1-0.5,2.2-0.5,3.2c0,1,0.1,2,0.4,2.8
				C24,73.4,24.5,74,24.7,74.3z"/>
			<path id="XMLID_26_" class="st6" d="M26.2,68.6C26.2,68.6,26.2,68.7,26.2,68.6C26.2,68.7,26.2,68.7,26.2,68.6
				c1.7-0.8,2.9-2,3.7-3.6c0.2-0.5,0.4-1,0.5-1.5c0,0,0,0,0,0c0,0,0,0,0,0C29.1,64.1,28,65,28,65.1c-0.2,0.1-0.4,0.2-0.6,0.1
				c-0.2-0.1-0.3-0.3-0.3-0.5c0.1-1.8-0.4-3.2-0.8-4c0,0,0,0,0,0l0,0c0,0,0,0,0,0c-0.5,1.1-0.8,2.1-0.9,3.1c-0.2,1-0.1,2,0.1,2.9
				C25.6,67.6,26,68.3,26.2,68.6z"/>
			<path id="XMLID_25_" class="st6" d="M28.3,63.3C28.3,63.3,28.3,63.3,28.3,63.3C28.3,63.3,28.4,63.3,28.3,63.3
				c1.5-0.4,2.8-1.4,3.9-2.9c0.5-0.6,0.8-1.2,1-1.6c0,0,0,0,0,0c0,0,0,0,0,0c-1.4,0.2-2.5,1.2-2.5,1.2c-0.2,0.2-0.4,0.2-0.6,0.1
				c-0.2-0.1-0.3-0.3-0.3-0.5c0.4-1.8,0.1-3.2-0.2-4.1c0,0,0,0,0,0c0,0,0,0,0,0c-0.6,1-1.1,2-1.4,2.9c-0.3,1-0.4,1.9-0.4,2.8
				C27.9,62.2,28.2,63,28.3,63.3z"/>
			<path id="XMLID_24_" class="st6" d="M31.3,58.1C31.3,58.1,31.3,58.1,31.3,58.1c2.5-0.4,4.4-2.6,5.3-3.9c0,0,0,0,0,0c0,0,0,0,0,0
				C35.1,54.3,34,55,34,55.1c-0.2,0.1-0.4,0.1-0.6,0c-0.2-0.1-0.2-0.4-0.2-0.6c0.6-1.7,0.5-3.1,0.3-4c0,0,0,0,0,0c0,0,0,0,0,0
				C30.4,54.1,30.9,57,31.3,58.1C31.2,58.1,31.3,58.1,31.3,58.1z"/>
			<path id="XMLID_23_" class="st6" d="M34.7,53.4c0.1,0,0.1,0,0.2,0c1.5,0,3-0.9,4-1.7c0.5-0.4,1-0.8,1.5-1.3c0,0,0,0,0,0
				c0,0,0,0,0,0c-1.3,0-2.5,0.5-2.5,0.5c-0.2,0.1-0.4,0-0.5-0.1c-0.1-0.2-0.2-0.4-0.1-0.6c0.8-1.6,1-3,0.9-4c0,0,0,0,0,0
				c0,0,0,0,0,0c-0.9,0.8-1.6,1.6-2.2,2.4c-0.6,0.9-0.9,1.7-1.1,2.6C34.5,52.2,34.6,53,34.7,53.4C34.7,53.3,34.7,53.4,34.7,53.4z"/>
			<path id="XMLID_22_" class="st6" d="M44.9,46.9c-1.3-0.1-2.6,0.2-2.6,0.2c-0.2,0-0.4,0-0.5-0.2c-0.1-0.2-0.1-0.4,0-0.6
				c1-1.5,1.3-2.9,1.3-3.8c0,0,0,0,0,0c0,0,0,0,0,0c-3.9,2.8-4.2,5.7-4.1,6.9c0,0,0,0,0,0c0.1,0,0.2,0,0.3,0
				C41.6,49.3,43.8,47.8,44.9,46.9C44.9,46.9,44.9,46.9,44.9,46.9C44.9,46.9,44.9,46.9,44.9,46.9z"/>
			<path id="XMLID_21_" class="st6" d="M49.8,44.5c-0.4-0.1-0.9-0.2-1.4-0.3c-0.7-0.1-1.3-0.1-1.3-0.1c0,0,0,0,0,0
				c-0.2,0-0.4-0.1-0.5-0.3c-0.1-0.2,0-0.4,0.1-0.6c1.4-1.2,2-2.2,2.3-2.9c0,0,0,0,0,0c0,0,0,0,0,0c-4.5,1.5-5.5,4.2-5.7,5.2
				c0,0,0,0,0,0c0.5,0.1,1.1,0.2,1.8,0.2c0.8,0,1.9-0.1,3-0.6C48.8,45,49.3,44.8,49.8,44.5C49.9,44.5,49.9,44.5,49.8,44.5
				C49.9,44.5,49.9,44.5,49.8,44.5z"/>
			<path id="XMLID_20_" class="st6" d="M55.3,43c-1.2-0.6-2.5-0.8-2.5-0.8c-0.2,0-0.4-0.2-0.4-0.4c0-0.2,0.1-0.4,0.3-0.5
				c1.5-0.7,2.2-1.5,2.6-2c0,0,0,0,0,0c0,0,0,0,0,0c-2.3,0.3-4.2,1.1-5.3,2.3C49.3,42,49,42.6,48.8,43c0,0,0,0,0,0
				c1,0.5,2.1,0.6,3,0.6c0.6,0,1.2-0.1,1.7-0.2C54.1,43.4,54.7,43.3,55.3,43C55.3,43.1,55.3,43.1,55.3,43C55.3,43,55.3,43,55.3,43z"
				/>
			<path id="XMLID_19_" class="st6" d="M58.8,41.5c-0.2-0.1-0.3-0.3-0.3-0.5c0-0.2,0.2-0.4,0.4-0.5c1.5-0.5,2.4-1,2.9-1.4
				c0,0,0,0,0,0c0,0,0,0,0,0c-2.3-0.2-4.2,0.2-5.6,1.1c-0.7,0.5-1.1,1-1.4,1.3c0,0,0,0,0,0c1.5,1.2,3.5,1.4,5.1,1.4
				c0.5,0,0.9,0,1.3-0.1c0,0,0,0,0,0c0,0,0,0,0,0C60.1,42,58.8,41.5,58.8,41.5z"/>
			<path id="XMLID_18_" class="st6" d="M64.7,41.9c-0.2-0.1-0.3-0.3-0.2-0.5c0-0.2,0.2-0.4,0.4-0.4c1.5-0.2,2.5-0.5,3.1-0.8
				c0,0,0,0,0,0c0,0,0,0,0,0c-2.2-0.6-4.1-0.6-5.6,0c-0.8,0.3-1.3,0.7-1.6,1c0,0,0,0,0,0.1c1.9,2.2,4.5,2.7,5.9,2.7l0,0c0,0,0,0,0,0
				c0,0,0,0,0,0C65.9,42.7,64.7,41.9,64.7,41.9z"/>
			<path id="XMLID_17_" class="st6" d="M79.5,49.3C79.5,49.3,79.5,49.3,79.5,49.3c0-0.5,0-1.5-0.4-2.5c-0.7-1.7-2.1-3-4.1-3.6
				c0,0,0,0,0,0c0,0,0,0,0,0c0.3,0.8,0.8,2,1.6,3c0.1,0.2,0.1,0.4,0,0.6C76.5,47,76.2,47.1,76,47c0,0-1.3-0.3-2.6,0c0,0,0,0,0,0
				c0,0,0,0,0,0c1.3,0.9,3.7,2.2,5.8,2.2C79.3,49.3,79.4,49.3,79.5,49.3z"/>
			<path id="XMLID_16_" class="st6" d="M74.8,45.6C74.8,45.6,74.8,45.6,74.8,45.6c-1.1-1.2-2.6-1.8-4.3-1.7c-0.6,0-1.2,0.2-1.8,0.3
				c0,0,0,0,0,0c0,0,0,0,0,0c1.4,1.1,2.8,1.6,4.3,1.6c0.1,0,0.2,0,0.2,0C73.8,45.9,74.4,45.8,74.8,45.6
				C74.8,45.6,74.8,45.6,74.8,45.6z"/>
			<path id="XMLID_15_" class="st6" d="M66.5,42C66.5,42,66.5,42,66.5,42c0.9,0.6,1.9,0.9,3.2,0.9c0.5,0,1.1-0.1,1.6-0.2
				c0.9-0.2,1.7-0.5,2.2-0.7c0,0,0,0,0,0c0,0,0,0,0,0c-0.8-0.5-1.7-0.8-2.5-0.9c-0.9-0.1-1.8-0.1-2.7,0.1
				C67.5,41.4,66.9,41.7,66.5,42C66.5,41.9,66.5,42,66.5,42z"/>
		</g>
		<g id="XMLID_4_">
			<path id="XMLID_13_" class="st0" d="M62,136.2c0.1-0.2,0.1-0.5,0.1-0.7c0-0.2,0-0.4-0.1-0.7c1.1-0.2,2.8-0.7,3.7-1.9
				c0.6-0.7,0.8-1.5,0.7-2.4c-0.1-0.8-0.5-1.4-1.1-1.8c-1.8-1.2-5.3-0.3-6.2,0c-1-0.3-4.4-1.1-6.2,0c-0.6,0.4-1,1.1-1.1,1.8
				c-0.1,0.9,0.1,1.7,0.7,2.4c1,1.2,2.7,1.7,3.8,1.9c0,0.2-0.1,0.4-0.1,0.7c0,0.2,0,0.5,0.1,0.7c-0.8,0.8-3.3,2.9-6.9,3.3v0
				c0.1,0.2,0.4,0.7,1.1,1.3c3.2-0.6,5.5-2.4,6.5-3.3c0.1,0.1,0.2,0.2,0.3,0.3c-0.2,0.9-1.2,3.2-5.1,4.1c0.6,0.3,1.4,0.5,2.4,0.7
				c2.7-1.2,3.7-3.1,4-4.2c0.2,0,0.4,0.1,0.6,0.1c0.2,0,0.4,0,0.6-0.1c0.3,1.1,1.3,3,4,4.2c0.9-0.1,1.7-0.4,2.4-0.7
				c-3.9-1-4.9-3.2-5.1-4.1c0.1-0.1,0.2-0.2,0.3-0.3c1,1,3.3,2.7,6.5,3.3c0.6-0.6,0.9-1.1,1.1-1.3C65.3,139.1,62.8,136.9,62,136.2z"
				/>
			<g id="XMLID_5_">
				<g id="XMLID_8_">
					<path id="XMLID_12_" class="st3" d="M64.6,129.8c0.3,0.2,0.4,0.5,0.5,0.8c0.1,0.5-0.1,0.9-0.4,1.3c-0.4,0.5-1.1,0.9-1.8,1.1
						c0.3-0.7,0.4-1.4,0.1-2.1c-0.2-0.7-0.7-1.2-1.1-1.5C63,129.4,64,129.5,64.6,129.8z"/>
					<path id="XMLID_11_" class="st3" d="M56.5,131.5c0.5-1.4,2.5-1.4,2.6-1.4h0c0,0,0.5,0,1.1,0.2c0.7,0.2,1.2,0.7,1.5,1.3
						c0.2,0.6-0.2,1.3-0.6,1.7c-0.5-0.5-1.2-0.7-2-0.7c-0.8,0-1.5,0.3-2,0.8C56.8,132.8,56.3,132.1,56.5,131.5z"/>
					<path id="XMLID_10_" class="st3" d="M55.4,133.1c-0.7-0.2-1.4-0.6-1.8-1.1c-0.3-0.4-0.4-0.8-0.4-1.3c0-0.4,0.2-0.6,0.5-0.8
						c0.4-0.3,1.1-0.4,1.8-0.4c0.3,0,0.6,0,0.9,0c-0.5,0.3-0.9,0.8-1.1,1.5C54.9,131.8,55.1,132.5,55.4,133.1z"/>
					<path id="XMLID_9_" class="st3" d="M57.6,135.4c0-0.9,0.7-1.6,1.6-1.6c0.9,0,1.6,0.7,1.6,1.6c0,0.9-0.7,1.6-1.6,1.6
						C58.3,137,57.6,136.3,57.6,135.4z"/>
				</g>
				<path id="XMLID_7_" class="st3" d="M67.8,140.8c-3.2-0.6-5.5-2.3-6.5-3.3c-0.1,0.1-0.2,0.2-0.3,0.3c0.2,0.9,1.2,3.1,5.1,4.1
					C66.8,141.6,67.4,141.1,67.8,140.8z"/>
				<path id="XMLID_6_" class="st3" d="M56.9,137.4c-1,1-3.3,2.7-6.5,3.3c0.4,0.4,1,0.8,1.8,1.1c3.9-1,4.9-3.3,5.1-4.1
					C57.1,137.7,57,137.6,56.9,137.4z"/>
			</g>
		</g>
	</g>
</g>
</svg>
